solid Object01
  facet normal 0.000000e+000 0.000000e+000 1.000000e+000
    outer loop
      vertex -2.604979e+003 4.808112e+002 3.000000e+003
      vertex -2.604979e+003 -4.350811e+003 3.000000e+003
      vertex 1.060425e+003 -4.350811e+003 3.000000e+003
    endloop
  endfacet
  facet normal 0.000000e+000 0.000000e+000 1.000000e+000
    outer loop
      vertex 1.060425e+003 -4.350811e+003 3.000000e+003
      vertex 1.060425e+003 4.808112e+002 3.000000e+003
      vertex -2.604979e+003 4.808112e+002 3.000000e+003
    endloop
  endfacet
endsolid Object01
