solid Object01
  facet normal -5.140834e-008 -4.501154e-007 1.000000e+000
    outer loop
      vertex 7.782206e+001 -8.553616e+001 1.825330e+003
      vertex 1.389696e+002 4.498757e+002 1.825330e+003
      vertex 1.225762e+002 4.517480e+002 1.825330e+003
    endloop
  endfacet
  facet normal -5.140573e-008 -4.501156e-007 1.000000e+000
    outer loop
      vertex 7.782206e+001 -8.553616e+001 1.825330e+003
      vertex 1.225762e+002 4.517480e+002 1.825330e+003
      vertex 6.142862e+001 -8.366394e+001 1.825330e+003
    endloop
  endfacet
  facet normal 1.134731e-001 9.935411e-001 -2.418188e-008
    outer loop
      vertex 1.389696e+002 4.498757e+002 1.825330e+003
      vertex 1.389697e+002 4.498757e+002 1.001089e+003
      vertex 1.225762e+002 4.517480e+002 1.001089e+003
    endloop
  endfacet
  facet normal 1.134719e-001 9.935412e-001 -1.050326e-009
    outer loop
      vertex 1.389696e+002 4.498757e+002 1.825330e+003
      vertex 1.225762e+002 4.517480e+002 1.001089e+003
      vertex 1.225762e+002 4.517480e+002 1.825330e+003
    endloop
  endfacet
  facet normal 0.000000e+000 0.000000e+000 -1.000000e+000
    outer loop
      vertex 1.389697e+002 4.498757e+002 1.001089e+003
      vertex 7.782209e+001 -8.553616e+001 1.001089e+003
      vertex 6.142865e+001 -8.366394e+001 1.001089e+003
    endloop
  endfacet
  facet normal 0.000000e+000 0.000000e+000 -1.000000e+000
    outer loop
      vertex 1.389697e+002 4.498757e+002 1.001089e+003
      vertex 6.142865e+001 -8.366394e+001 1.001089e+003
      vertex 1.225762e+002 4.517480e+002 1.001089e+003
    endloop
  endfacet
  facet normal -1.134680e-001 -9.935417e-001 -4.201163e-009
    outer loop
      vertex 7.782209e+001 -8.553616e+001 1.001089e+003
      vertex 7.782206e+001 -8.553616e+001 1.825330e+003
      vertex 6.142862e+001 -8.366394e+001 1.825330e+003
    endloop
  endfacet
  facet normal -1.134680e-001 -9.935417e-001 -4.201163e-009
    outer loop
      vertex 7.782209e+001 -8.553616e+001 1.001089e+003
      vertex 6.142862e+001 -8.366394e+001 1.825330e+003
      vertex 6.142865e+001 -8.366394e+001 1.001089e+003
    endloop
  endfacet
  facet normal 0.000000e+000 0.000000e+000 1.000000e+000
    outer loop
      vertex 7.781598e+001 -8.558972e+001 9.337919e+002
      vertex 1.389758e+002 4.499293e+002 9.337919e+002
      vertex 1.225823e+002 4.518015e+002 9.337919e+002
    endloop
  endfacet
  facet normal 0.000000e+000 0.000000e+000 1.000000e+000
    outer loop
      vertex 7.781598e+001 -8.558972e+001 9.337919e+002
      vertex 1.225823e+002 4.518015e+002 9.337919e+002
      vertex 6.142254e+001 -8.371750e+001 9.337919e+002
    endloop
  endfacet
  facet normal 1.134683e-001 9.935416e-001 0.000000e+000
    outer loop
      vertex 1.389758e+002 4.499293e+002 9.337919e+002
      vertex 1.389758e+002 4.499293e+002 5.437919e+002
      vertex 1.225824e+002 4.518015e+002 5.437919e+002
    endloop
  endfacet
  facet normal 1.134676e-001 9.935417e-001 2.885631e-008
    outer loop
      vertex 1.389758e+002 4.499293e+002 9.337919e+002
      vertex 1.225824e+002 4.518015e+002 5.437919e+002
      vertex 1.225823e+002 4.518015e+002 9.337919e+002
    endloop
  endfacet
  facet normal 0.000000e+000 0.000000e+000 -1.000000e+000
    outer loop
      vertex 1.389758e+002 4.499293e+002 5.437919e+002
      vertex 7.781600e+001 -8.558972e+001 5.437919e+002
      vertex 6.142256e+001 -8.371750e+001 5.437919e+002
    endloop
  endfacet
  facet normal 0.000000e+000 0.000000e+000 -1.000000e+000
    outer loop
      vertex 1.389758e+002 4.499293e+002 5.437919e+002
      vertex 6.142256e+001 -8.371750e+001 5.437919e+002
      vertex 1.225824e+002 4.518015e+002 5.437919e+002
    endloop
  endfacet
  facet normal -1.134680e-001 -9.935417e-001 -6.659172e-009
    outer loop
      vertex 7.781600e+001 -8.558972e+001 5.437919e+002
      vertex 7.781598e+001 -8.558972e+001 9.337919e+002
      vertex 6.142254e+001 -8.371750e+001 9.337919e+002
    endloop
  endfacet
  facet normal -1.134680e-001 -9.935417e-001 -6.659172e-009
    outer loop
      vertex 7.781600e+001 -8.558972e+001 5.437919e+002
      vertex 6.142254e+001 -8.371750e+001 9.337919e+002
      vertex 6.142256e+001 -8.371750e+001 5.437919e+002
    endloop
  endfacet
  facet normal 0.000000e+000 0.000000e+000 1.000000e+000
    outer loop
      vertex 7.781592e+001 -8.558972e+001 2.290468e+003
      vertex 1.389757e+002 4.499293e+002 2.290468e+003
      vertex 1.225823e+002 4.518015e+002 2.290468e+003
    endloop
  endfacet
  facet normal 0.000000e+000 0.000000e+000 1.000000e+000
    outer loop
      vertex 7.781592e+001 -8.558972e+001 2.290468e+003
      vertex 1.225823e+002 4.518015e+002 2.290468e+003
      vertex 6.142248e+001 -8.371750e+001 2.290468e+003
    endloop
  endfacet
  facet normal 1.134683e-001 9.935416e-001 0.000000e+000
    outer loop
      vertex 1.389757e+002 4.499293e+002 2.290468e+003
      vertex 1.389757e+002 4.499293e+002 1.900468e+003
      vertex 1.225823e+002 4.518015e+002 1.900468e+003
    endloop
  endfacet
  facet normal 1.134683e-001 9.935416e-001 0.000000e+000
    outer loop
      vertex 1.389757e+002 4.499293e+002 2.290468e+003
      vertex 1.225823e+002 4.518015e+002 1.900468e+003
      vertex 1.225823e+002 4.518015e+002 2.290468e+003
    endloop
  endfacet
  facet normal 0.000000e+000 0.000000e+000 -1.000000e+000
    outer loop
      vertex 1.389757e+002 4.499293e+002 1.900468e+003
      vertex 7.781594e+001 -8.558972e+001 1.900468e+003
      vertex 6.142250e+001 -8.371750e+001 1.900468e+003
    endloop
  endfacet
  facet normal 0.000000e+000 0.000000e+000 -1.000000e+000
    outer loop
      vertex 1.389757e+002 4.499293e+002 1.900468e+003
      vertex 6.142250e+001 -8.371750e+001 1.900468e+003
      vertex 1.225823e+002 4.518015e+002 1.900468e+003
    endloop
  endfacet
  facet normal -1.134680e-001 -9.935417e-001 -6.659172e-009
    outer loop
      vertex 7.781594e+001 -8.558972e+001 1.900468e+003
      vertex 7.781592e+001 -8.558972e+001 2.290468e+003
      vertex 6.142248e+001 -8.371750e+001 2.290468e+003
    endloop
  endfacet
  facet normal -1.134680e-001 -9.935417e-001 -6.659172e-009
    outer loop
      vertex 7.781594e+001 -8.558972e+001 1.900468e+003
      vertex 6.142248e+001 -8.371750e+001 2.290468e+003
      vertex 6.142250e+001 -8.371750e+001 1.900468e+003
    endloop
  endfacet
  facet normal 9.935415e-001 -1.134691e-001 3.678595e-008
    outer loop
      vertex 1.389697e+002 4.498757e+002 1.001089e+003
      vertex 7.782206e+001 -8.553616e+001 1.825330e+003
      vertex 7.782209e+001 -8.553616e+001 1.001089e+003
    endloop
  endfacet
  facet normal 9.935415e-001 -1.134690e-001 1.145590e-007
    outer loop
      vertex 1.389696e+002 4.498757e+002 1.825330e+003
      vertex 7.782206e+001 -8.553616e+001 1.825330e+003
      vertex 1.389697e+002 4.498757e+002 1.001089e+003
    endloop
  endfacet
  facet normal 9.935415e-001 -1.134690e-001 5.830862e-008
    outer loop
      vertex 1.389758e+002 4.499293e+002 5.437919e+002
      vertex 7.781598e+001 -8.558972e+001 9.337919e+002
      vertex 7.781600e+001 -8.558972e+001 5.437919e+002
    endloop
  endfacet
  facet normal 9.935415e-001 -1.134690e-001 0.000000e+000
    outer loop
      vertex 1.389758e+002 4.499293e+002 5.437919e+002
      vertex 1.389758e+002 4.499293e+002 9.337919e+002
      vertex 7.781598e+001 -8.558972e+001 9.337919e+002
    endloop
  endfacet
  facet normal 9.935415e-001 -1.134689e-001 5.830862e-008
    outer loop
      vertex 1.389757e+002 4.499293e+002 1.900468e+003
      vertex 7.781592e+001 -8.558972e+001 2.290468e+003
      vertex 7.781594e+001 -8.558972e+001 1.900468e+003
    endloop
  endfacet
  facet normal 9.935415e-001 -1.134689e-001 0.000000e+000
    outer loop
      vertex 1.389757e+002 4.499293e+002 1.900468e+003
      vertex 1.389757e+002 4.499293e+002 2.290468e+003
      vertex 7.781592e+001 -8.558972e+001 2.290468e+003
    endloop
  endfacet
  facet normal -9.935415e-001 1.134689e-001 -3.678595e-008
    outer loop
      vertex 1.225762e+002 4.517480e+002 1.001089e+003
      vertex 6.142865e+001 -8.366394e+001 1.001089e+003
      vertex 6.142862e+001 -8.366394e+001 1.825330e+003
    endloop
  endfacet
  facet normal -9.935415e-001 1.134690e-001 9.196484e-009
    outer loop
      vertex 1.225762e+002 4.517480e+002 1.825330e+003
      vertex 1.225762e+002 4.517480e+002 1.001089e+003
      vertex 6.142862e+001 -8.366394e+001 1.825330e+003
    endloop
  endfacet
  facet normal -9.935415e-001 1.134690e-001 -5.830862e-008
    outer loop
      vertex 1.225824e+002 4.518015e+002 5.437919e+002
      vertex 6.142256e+001 -8.371750e+001 5.437919e+002
      vertex 6.142254e+001 -8.371750e+001 9.337919e+002
    endloop
  endfacet
  facet normal -9.935415e-001 1.134689e-001 -2.526707e-007
    outer loop
      vertex 1.225824e+002 4.518015e+002 5.437919e+002
      vertex 6.142254e+001 -8.371750e+001 9.337919e+002
      vertex 1.225823e+002 4.518015e+002 9.337919e+002
    endloop
  endfacet
  facet normal -9.935415e-001 1.134690e-001 -5.830862e-008
    outer loop
      vertex 1.225823e+002 4.518015e+002 1.900468e+003
      vertex 6.142250e+001 -8.371750e+001 1.900468e+003
      vertex 6.142248e+001 -8.371750e+001 2.290468e+003
    endloop
  endfacet
  facet normal -9.935415e-001 1.134690e-001 0.000000e+000
    outer loop
      vertex 1.225823e+002 4.518015e+002 1.900468e+003
      vertex 6.142248e+001 -8.371750e+001 2.290468e+003
      vertex 1.225823e+002 4.518015e+002 2.290468e+003
    endloop
  endfacet
endsolid Object01
