solid Object01
  facet normal 0.000000e+000 0.000000e+000 -1.000000e+000
    outer loop
      vertex -2.604979e+003 -4.350811e+003 0.000000e+000
      vertex -2.604979e+003 4.808112e+002 0.000000e+000
      vertex 1.060425e+003 4.808112e+002 0.000000e+000
    endloop
  endfacet
  facet normal 0.000000e+000 0.000000e+000 -1.000000e+000
    outer loop
      vertex 1.060425e+003 4.808112e+002 0.000000e+000
      vertex 1.065111e+003 -4.350811e+003 0.000000e+000
      vertex -2.604979e+003 -4.350811e+003 0.000000e+000
    endloop
  endfacet
endsolid Object01
