solid Object01
  facet normal -1.391638e-001 3.789568e-001 9.148908e-001
    outer loop
      vertex -2.594606e+003 -1.914844e+003 1.755824e+003
      vertex -2.594606e+003 -1.901461e+003 1.750281e+003
      vertex -2.605280e+003 -1.905381e+003 1.750281e+003
    endloop
  endfacet
  facet normal -3.403371e-001 1.590017e-001 9.267627e-001
    outer loop
      vertex -2.594606e+003 -1.914844e+003 1.755824e+003
      vertex -2.605280e+003 -1.905381e+003 1.750281e+003
      vertex -2.609701e+003 -1.914844e+003 1.750281e+003
    endloop
  endfacet
  facet normal -3.447226e-001 0.000000e+000 9.387046e-001
    outer loop
      vertex -2.609701e+003 -4.034478e+003 1.750281e+003
      vertex -2.594606e+003 -4.034478e+003 1.755824e+003
      vertex -2.594606e+003 -1.914844e+003 1.755824e+003
    endloop
  endfacet
  facet normal -3.447226e-001 0.000000e+000 9.387046e-001
    outer loop
      vertex -2.594606e+003 -1.914844e+003 1.755824e+003
      vertex -2.609701e+003 -1.914844e+003 1.750281e+003
      vertex -2.609701e+003 -4.034478e+003 1.750281e+003
    endloop
  endfacet
  facet normal -3.403372e-001 -1.589997e-001 9.267630e-001
    outer loop
      vertex -2.594606e+003 -4.034478e+003 1.755824e+003
      vertex -2.609701e+003 -4.034478e+003 1.750281e+003
      vertex -2.605280e+003 -4.043941e+003 1.750281e+003
    endloop
  endfacet
  facet normal -1.391595e-001 -3.789570e-001 9.148914e-001
    outer loop
      vertex -2.594606e+003 -4.034478e+003 1.755824e+003
      vertex -2.605280e+003 -4.043941e+003 1.750281e+003
      vertex -2.594606e+003 -4.047860e+003 1.750281e+003
    endloop
  endfacet
  facet normal 0.000000e+000 -3.826805e-001 9.238808e-001
    outer loop
      vertex -1.975554e+003 -4.047860e+003 1.750281e+003
      vertex -1.975554e+003 -4.034478e+003 1.755824e+003
      vertex -2.594606e+003 -4.034478e+003 1.755824e+003
    endloop
  endfacet
  facet normal 0.000000e+000 -3.826805e-001 9.238808e-001
    outer loop
      vertex -2.594606e+003 -4.034478e+003 1.755824e+003
      vertex -2.594606e+003 -4.047860e+003 1.750281e+003
      vertex -1.975554e+003 -4.047860e+003 1.750281e+003
    endloop
  endfacet
  facet normal 1.391580e-001 -3.789571e-001 9.148915e-001
    outer loop
      vertex -1.975554e+003 -4.034478e+003 1.755824e+003
      vertex -1.975554e+003 -4.047860e+003 1.750281e+003
      vertex -1.964881e+003 -4.043941e+003 1.750281e+003
    endloop
  endfacet
  facet normal 3.403323e-001 -1.590017e-001 9.267645e-001
    outer loop
      vertex -1.975554e+003 -4.034478e+003 1.755824e+003
      vertex -1.964881e+003 -4.043941e+003 1.750281e+003
      vertex -1.960460e+003 -4.034478e+003 1.750281e+003
    endloop
  endfacet
  facet normal 3.447177e-001 0.000000e+000 9.387064e-001
    outer loop
      vertex -1.960460e+003 -1.914844e+003 1.750281e+003
      vertex -1.975554e+003 -1.914844e+003 1.755824e+003
      vertex -1.975554e+003 -4.034478e+003 1.755824e+003
    endloop
  endfacet
  facet normal 3.447177e-001 0.000000e+000 9.387064e-001
    outer loop
      vertex -1.975554e+003 -4.034478e+003 1.755824e+003
      vertex -1.960460e+003 -4.034478e+003 1.750281e+003
      vertex -1.960460e+003 -1.914844e+003 1.750281e+003
    endloop
  endfacet
  facet normal 3.403322e-001 1.590037e-001 9.267642e-001
    outer loop
      vertex -1.975554e+003 -1.914844e+003 1.755824e+003
      vertex -1.960460e+003 -1.914844e+003 1.750281e+003
      vertex -1.964881e+003 -1.905381e+003 1.750281e+003
    endloop
  endfacet
  facet normal 1.391622e-001 3.789569e-001 9.148910e-001
    outer loop
      vertex -1.975554e+003 -1.914844e+003 1.755824e+003
      vertex -1.964881e+003 -1.905381e+003 1.750281e+003
      vertex -1.975554e+003 -1.901461e+003 1.750281e+003
    endloop
  endfacet
  facet normal 0.000000e+000 3.826805e-001 9.238808e-001
    outer loop
      vertex -2.594606e+003 -1.901461e+003 1.750281e+003
      vertex -2.594606e+003 -1.914844e+003 1.755824e+003
      vertex -1.975554e+003 -1.914844e+003 1.755824e+003
    endloop
  endfacet
  facet normal 0.000000e+000 3.826805e-001 9.238808e-001
    outer loop
      vertex -1.975554e+003 -1.914844e+003 1.755824e+003
      vertex -1.975554e+003 -1.901461e+003 1.750281e+003
      vertex -2.594606e+003 -1.901461e+003 1.750281e+003
    endloop
  endfacet
  facet normal -3.212880e-001 8.748993e-001 3.623883e-001
    outer loop
      vertex -2.609701e+003 -1.901461e+003 1.736899e+003
      vertex -2.605280e+003 -1.905381e+003 1.750281e+003
      vertex -2.594606e+003 -1.901461e+003 1.750281e+003
    endloop
  endfacet
  facet normal -3.212905e-001 8.748972e-001 3.623911e-001
    outer loop
      vertex -2.594606e+003 -1.901461e+003 1.750281e+003
      vertex -2.594606e+003 -1.895918e+003 1.736899e+003
      vertex -2.609701e+003 -1.901461e+003 1.736899e+003
    endloop
  endfacet
  facet normal -8.343315e-001 3.897903e-001 3.898134e-001
    outer loop
      vertex -2.615953e+003 -1.914844e+003 1.736899e+003
      vertex -2.609701e+003 -1.914844e+003 1.750281e+003
      vertex -2.605280e+003 -1.905381e+003 1.750281e+003
    endloop
  endfacet
  facet normal -8.343294e-001 3.898123e-001 3.897960e-001
    outer loop
      vertex -2.605280e+003 -1.905381e+003 1.750281e+003
      vertex -2.609701e+003 -1.901461e+003 1.736899e+003
      vertex -2.615953e+003 -1.914844e+003 1.736899e+003
    endloop
  endfacet
  facet normal -9.059922e-001 0.000000e+000 4.232944e-001
    outer loop
      vertex -2.615953e+003 -4.034478e+003 1.736899e+003
      vertex -2.609701e+003 -4.034478e+003 1.750281e+003
      vertex -2.609701e+003 -1.914844e+003 1.750281e+003
    endloop
  endfacet
  facet normal -9.059922e-001 0.000000e+000 4.232944e-001
    outer loop
      vertex -2.609701e+003 -1.914844e+003 1.750281e+003
      vertex -2.615953e+003 -1.914844e+003 1.736899e+003
      vertex -2.615953e+003 -4.034478e+003 1.736899e+003
    endloop
  endfacet
  facet normal -8.343423e-001 -3.897903e-001 3.897903e-001
    outer loop
      vertex -2.609701e+003 -4.047860e+003 1.736899e+003
      vertex -2.605280e+003 -4.043941e+003 1.750281e+003
      vertex -2.609701e+003 -4.034478e+003 1.750281e+003
    endloop
  endfacet
  facet normal -8.343240e-001 -3.898098e-001 3.898098e-001
    outer loop
      vertex -2.609701e+003 -4.034478e+003 1.750281e+003
      vertex -2.615953e+003 -4.034478e+003 1.736899e+003
      vertex -2.609701e+003 -4.047860e+003 1.736899e+003
    endloop
  endfacet
  facet normal -3.212777e-001 -8.748984e-001 3.623995e-001
    outer loop
      vertex -2.594606e+003 -4.053404e+003 1.736899e+003
      vertex -2.594606e+003 -4.047860e+003 1.750281e+003
      vertex -2.605280e+003 -4.043941e+003 1.750281e+003
    endloop
  endfacet
  facet normal -3.212977e-001 -8.748978e-001 3.623832e-001
    outer loop
      vertex -2.605280e+003 -4.043941e+003 1.750281e+003
      vertex -2.609701e+003 -4.047860e+003 1.736899e+003
      vertex -2.594606e+003 -4.053404e+003 1.736899e+003
    endloop
  endfacet
  facet normal 0.000000e+000 -9.238778e-001 3.826877e-001
    outer loop
      vertex -1.975554e+003 -4.053404e+003 1.736899e+003
      vertex -1.975554e+003 -4.047860e+003 1.750281e+003
      vertex -2.594606e+003 -4.047860e+003 1.750281e+003
    endloop
  endfacet
  facet normal 0.000000e+000 -9.238778e-001 3.826877e-001
    outer loop
      vertex -2.594606e+003 -4.047860e+003 1.750281e+003
      vertex -2.594606e+003 -4.053404e+003 1.736899e+003
      vertex -1.975554e+003 -4.053404e+003 1.736899e+003
    endloop
  endfacet
  facet normal 3.212769e-001 -8.749061e-001 3.623816e-001
    outer loop
      vertex -1.960460e+003 -4.047860e+003 1.736899e+003
      vertex -1.964881e+003 -4.043941e+003 1.750281e+003
      vertex -1.975554e+003 -4.047860e+003 1.750281e+003
    endloop
  endfacet
  facet normal 3.212912e-001 -8.748941e-001 3.623978e-001
    outer loop
      vertex -1.975554e+003 -4.047860e+003 1.750281e+003
      vertex -1.975554e+003 -4.053404e+003 1.736899e+003
      vertex -1.960460e+003 -4.047860e+003 1.736899e+003
    endloop
  endfacet
  facet normal 8.343321e-001 -3.897963e-001 3.898061e-001
    outer loop
      vertex -1.954208e+003 -4.034478e+003 1.736899e+003
      vertex -1.960460e+003 -4.034478e+003 1.750281e+003
      vertex -1.964881e+003 -4.043941e+003 1.750281e+003
    endloop
  endfacet
  facet normal 8.343312e-001 -3.898056e-001 3.897987e-001
    outer loop
      vertex -1.964881e+003 -4.043941e+003 1.750281e+003
      vertex -1.960460e+003 -4.047860e+003 1.736899e+003
      vertex -1.954208e+003 -4.034478e+003 1.736899e+003
    endloop
  endfacet
  facet normal 9.059954e-001 0.000000e+000 4.232876e-001
    outer loop
      vertex -1.954208e+003 -1.914844e+003 1.736899e+003
      vertex -1.960460e+003 -1.914844e+003 1.750281e+003
      vertex -1.960460e+003 -4.034478e+003 1.750281e+003
    endloop
  endfacet
  facet normal 9.059954e-001 0.000000e+000 4.232876e-001
    outer loop
      vertex -1.960460e+003 -4.034478e+003 1.750281e+003
      vertex -1.954208e+003 -4.034478e+003 1.736899e+003
      vertex -1.954208e+003 -1.914844e+003 1.736899e+003
    endloop
  endfacet
  facet normal 8.343320e-001 3.898013e-001 3.898013e-001
    outer loop
      vertex -1.960460e+003 -1.901461e+003 1.736899e+003
      vertex -1.964881e+003 -1.905381e+003 1.750281e+003
      vertex -1.960460e+003 -1.914844e+003 1.750281e+003
    endloop
  endfacet
  facet normal 8.343289e-001 3.898045e-001 3.898045e-001
    outer loop
      vertex -1.960460e+003 -1.914844e+003 1.750281e+003
      vertex -1.954208e+003 -1.914844e+003 1.736899e+003
      vertex -1.960460e+003 -1.901461e+003 1.736899e+003
    endloop
  endfacet
  facet normal 3.212843e-001 8.748991e-001 3.623919e-001
    outer loop
      vertex -1.975554e+003 -1.895918e+003 1.736899e+003
      vertex -1.975554e+003 -1.901461e+003 1.750281e+003
      vertex -1.964881e+003 -1.905381e+003 1.750281e+003
    endloop
  endfacet
  facet normal 3.212860e-001 8.748991e-001 3.623905e-001
    outer loop
      vertex -1.964881e+003 -1.905381e+003 1.750281e+003
      vertex -1.960460e+003 -1.901461e+003 1.736899e+003
      vertex -1.975554e+003 -1.895918e+003 1.736899e+003
    endloop
  endfacet
  facet normal 0.000000e+000 9.238808e-001 3.826805e-001
    outer loop
      vertex -2.594606e+003 -1.895918e+003 1.736899e+003
      vertex -2.594606e+003 -1.901461e+003 1.750281e+003
      vertex -1.975554e+003 -1.901461e+003 1.750281e+003
    endloop
  endfacet
  facet normal 0.000000e+000 9.238808e-001 3.826805e-001
    outer loop
      vertex -1.975554e+003 -1.901461e+003 1.750281e+003
      vertex -1.975554e+003 -1.895918e+003 1.736899e+003
      vertex -2.594606e+003 -1.895918e+003 1.736899e+003
    endloop
  endfacet
  facet normal -3.447226e-001 9.387046e-001 0.000000e+000
    outer loop
      vertex -2.609701e+003 -1.901461e+003 1.717974e+003
      vertex -2.609701e+003 -1.901461e+003 1.736899e+003
      vertex -2.594606e+003 -1.895918e+003 1.736899e+003
    endloop
  endfacet
  facet normal -3.447226e-001 9.387046e-001 0.000000e+000
    outer loop
      vertex -2.594606e+003 -1.895918e+003 1.736899e+003
      vertex -2.594606e+003 -1.895918e+003 1.717974e+003
      vertex -2.609701e+003 -1.901461e+003 1.717974e+003
    endloop
  endfacet
  facet normal -9.059922e-001 4.232944e-001 0.000000e+000
    outer loop
      vertex -2.615953e+003 -1.914844e+003 1.717974e+003
      vertex -2.615953e+003 -1.914844e+003 1.736899e+003
      vertex -2.609701e+003 -1.901461e+003 1.736899e+003
    endloop
  endfacet
  facet normal -9.059922e-001 4.232944e-001 0.000000e+000
    outer loop
      vertex -2.609701e+003 -1.901461e+003 1.736899e+003
      vertex -2.609701e+003 -1.901461e+003 1.717974e+003
      vertex -2.615953e+003 -1.914844e+003 1.717974e+003
    endloop
  endfacet
  facet normal -1.000000e+000 0.000000e+000 0.000000e+000
    outer loop
      vertex -2.615953e+003 -4.034478e+003 1.717974e+003
      vertex -2.615953e+003 -4.034478e+003 1.736899e+003
      vertex -2.615953e+003 -1.914844e+003 1.736899e+003
    endloop
  endfacet
  facet normal -1.000000e+000 0.000000e+000 0.000000e+000
    outer loop
      vertex -2.615953e+003 -1.914844e+003 1.736899e+003
      vertex -2.615953e+003 -1.914844e+003 1.717974e+003
      vertex -2.615953e+003 -4.034478e+003 1.717974e+003
    endloop
  endfacet
  facet normal -9.059922e-001 -4.232944e-001 0.000000e+000
    outer loop
      vertex -2.609701e+003 -4.047860e+003 1.717974e+003
      vertex -2.609701e+003 -4.047860e+003 1.736899e+003
      vertex -2.615953e+003 -4.034478e+003 1.736899e+003
    endloop
  endfacet
  facet normal -9.059922e-001 -4.232944e-001 0.000000e+000
    outer loop
      vertex -2.615953e+003 -4.034478e+003 1.736899e+003
      vertex -2.615953e+003 -4.034478e+003 1.717974e+003
      vertex -2.609701e+003 -4.047860e+003 1.717974e+003
    endloop
  endfacet
  facet normal -3.447292e-001 -9.387022e-001 0.000000e+000
    outer loop
      vertex -2.594606e+003 -4.053404e+003 1.717974e+003
      vertex -2.594606e+003 -4.053404e+003 1.736899e+003
      vertex -2.609701e+003 -4.047860e+003 1.736899e+003
    endloop
  endfacet
  facet normal -3.447292e-001 -9.387022e-001 0.000000e+000
    outer loop
      vertex -2.609701e+003 -4.047860e+003 1.736899e+003
      vertex -2.609701e+003 -4.047860e+003 1.717974e+003
      vertex -2.594606e+003 -4.053404e+003 1.717974e+003
    endloop
  endfacet
  facet normal 0.000000e+000 -1.000000e+000 0.000000e+000
    outer loop
      vertex -1.975554e+003 -4.053404e+003 1.717974e+003
      vertex -1.975554e+003 -4.053404e+003 1.736899e+003
      vertex -2.594606e+003 -4.053404e+003 1.736899e+003
    endloop
  endfacet
  facet normal 0.000000e+000 -1.000000e+000 0.000000e+000
    outer loop
      vertex -2.594606e+003 -4.053404e+003 1.736899e+003
      vertex -2.594606e+003 -4.053404e+003 1.717974e+003
      vertex -1.975554e+003 -4.053404e+003 1.717974e+003
    endloop
  endfacet
  facet normal 3.447244e-001 -9.387040e-001 0.000000e+000
    outer loop
      vertex -1.960460e+003 -4.047860e+003 1.717974e+003
      vertex -1.960460e+003 -4.047860e+003 1.736899e+003
      vertex -1.975554e+003 -4.053404e+003 1.736899e+003
    endloop
  endfacet
  facet normal 3.447244e-001 -9.387040e-001 0.000000e+000
    outer loop
      vertex -1.975554e+003 -4.053404e+003 1.736899e+003
      vertex -1.975554e+003 -4.053404e+003 1.717974e+003
      vertex -1.960460e+003 -4.047860e+003 1.717974e+003
    endloop
  endfacet
  facet normal 9.059954e-001 -4.232876e-001 0.000000e+000
    outer loop
      vertex -1.954208e+003 -4.034478e+003 1.717974e+003
      vertex -1.954208e+003 -4.034478e+003 1.736899e+003
      vertex -1.960460e+003 -4.047860e+003 1.736899e+003
    endloop
  endfacet
  facet normal 9.059954e-001 -4.232876e-001 0.000000e+000
    outer loop
      vertex -1.960460e+003 -4.047860e+003 1.736899e+003
      vertex -1.960460e+003 -4.047860e+003 1.717974e+003
      vertex -1.954208e+003 -4.034478e+003 1.717974e+003
    endloop
  endfacet
  facet normal 1.000000e+000 0.000000e+000 0.000000e+000
    outer loop
      vertex -1.954208e+003 -1.914844e+003 1.717974e+003
      vertex -1.954208e+003 -1.914844e+003 1.736899e+003
      vertex -1.954208e+003 -4.034478e+003 1.736899e+003
    endloop
  endfacet
  facet normal 1.000000e+000 0.000000e+000 0.000000e+000
    outer loop
      vertex -1.954208e+003 -4.034478e+003 1.736899e+003
      vertex -1.954208e+003 -4.034478e+003 1.717974e+003
      vertex -1.954208e+003 -1.914844e+003 1.717974e+003
    endloop
  endfacet
  facet normal 9.059954e-001 4.232876e-001 0.000000e+000
    outer loop
      vertex -1.960460e+003 -1.901461e+003 1.717974e+003
      vertex -1.960460e+003 -1.901461e+003 1.736899e+003
      vertex -1.954208e+003 -1.914844e+003 1.736899e+003
    endloop
  endfacet
  facet normal 9.059954e-001 4.232876e-001 0.000000e+000
    outer loop
      vertex -1.954208e+003 -1.914844e+003 1.736899e+003
      vertex -1.954208e+003 -1.914844e+003 1.717974e+003
      vertex -1.960460e+003 -1.901461e+003 1.717974e+003
    endloop
  endfacet
  facet normal 3.447177e-001 9.387064e-001 0.000000e+000
    outer loop
      vertex -1.975554e+003 -1.895918e+003 1.717974e+003
      vertex -1.975554e+003 -1.895918e+003 1.736899e+003
      vertex -1.960460e+003 -1.901461e+003 1.736899e+003
    endloop
  endfacet
  facet normal 3.447177e-001 9.387064e-001 0.000000e+000
    outer loop
      vertex -1.960460e+003 -1.901461e+003 1.736899e+003
      vertex -1.960460e+003 -1.901461e+003 1.717974e+003
      vertex -1.975554e+003 -1.895918e+003 1.717974e+003
    endloop
  endfacet
  facet normal 0.000000e+000 1.000000e+000 0.000000e+000
    outer loop
      vertex -2.594606e+003 -1.895918e+003 1.717974e+003
      vertex -2.594606e+003 -1.895918e+003 1.736899e+003
      vertex -1.975554e+003 -1.895918e+003 1.736899e+003
    endloop
  endfacet
  facet normal 0.000000e+000 1.000000e+000 0.000000e+000
    outer loop
      vertex -1.975554e+003 -1.895918e+003 1.736899e+003
      vertex -1.975554e+003 -1.895918e+003 1.717974e+003
      vertex -2.594606e+003 -1.895918e+003 1.717974e+003
    endloop
  endfacet
  facet normal -3.212908e-001 8.748980e-001 -3.623889e-001
    outer loop
      vertex -2.605280e+003 -1.905381e+003 1.704592e+003
      vertex -2.609701e+003 -1.901461e+003 1.717974e+003
      vertex -2.594606e+003 -1.895918e+003 1.717974e+003
    endloop
  endfacet
  facet normal -3.212876e-001 8.748981e-001 -3.623914e-001
    outer loop
      vertex -2.594606e+003 -1.895918e+003 1.717974e+003
      vertex -2.594606e+003 -1.901461e+003 1.704592e+003
      vertex -2.605280e+003 -1.905381e+003 1.704592e+003
    endloop
  endfacet
  facet normal -8.343240e-001 3.898098e-001 -3.898098e-001
    outer loop
      vertex -2.609701e+003 -1.914844e+003 1.704592e+003
      vertex -2.615953e+003 -1.914844e+003 1.717974e+003
      vertex -2.609701e+003 -1.901461e+003 1.717974e+003
    endloop
  endfacet
  facet normal -8.343390e-001 3.897938e-001 -3.897938e-001
    outer loop
      vertex -2.609701e+003 -1.901461e+003 1.717974e+003
      vertex -2.605280e+003 -1.905381e+003 1.704592e+003
      vertex -2.609701e+003 -1.914844e+003 1.704592e+003
    endloop
  endfacet
  facet normal -9.059922e-001 0.000000e+000 -4.232944e-001
    outer loop
      vertex -2.609701e+003 -4.034478e+003 1.704592e+003
      vertex -2.615953e+003 -4.034478e+003 1.717974e+003
      vertex -2.615953e+003 -1.914844e+003 1.717974e+003
    endloop
  endfacet
  facet normal -9.059922e-001 0.000000e+000 -4.232944e-001
    outer loop
      vertex -2.615953e+003 -1.914844e+003 1.717974e+003
      vertex -2.609701e+003 -1.914844e+003 1.704592e+003
      vertex -2.609701e+003 -4.034478e+003 1.704592e+003
    endloop
  endfacet
  facet normal -8.343305e-001 -3.898129e-001 -3.897929e-001
    outer loop
      vertex -2.605280e+003 -4.043941e+003 1.704592e+003
      vertex -2.609701e+003 -4.047860e+003 1.717974e+003
      vertex -2.615953e+003 -4.034478e+003 1.717974e+003
    endloop
  endfacet
  facet normal -8.343332e-001 -3.897860e-001 -3.898141e-001
    outer loop
      vertex -2.615953e+003 -4.034478e+003 1.717974e+003
      vertex -2.609701e+003 -4.034478e+003 1.704592e+003
      vertex -2.605280e+003 -4.043941e+003 1.704592e+003
    endloop
  endfacet
  facet normal -3.212959e-001 -8.748927e-001 -3.623972e-001
    outer loop
      vertex -2.594606e+003 -4.047860e+003 1.704592e+003
      vertex -2.594606e+003 -4.053404e+003 1.717974e+003
      vertex -2.609701e+003 -4.047860e+003 1.717974e+003
    endloop
  endfacet
  facet normal -3.212804e-001 -8.749056e-001 -3.623797e-001
    outer loop
      vertex -2.609701e+003 -4.047860e+003 1.717974e+003
      vertex -2.605280e+003 -4.043941e+003 1.704592e+003
      vertex -2.594606e+003 -4.047860e+003 1.704592e+003
    endloop
  endfacet
  facet normal 0.000000e+000 -9.238778e-001 -3.826877e-001
    outer loop
      vertex -1.975554e+003 -4.047860e+003 1.704592e+003
      vertex -1.975554e+003 -4.053404e+003 1.717974e+003
      vertex -2.594606e+003 -4.053404e+003 1.717974e+003
    endloop
  endfacet
  facet normal 0.000000e+000 -9.238778e-001 -3.826877e-001
    outer loop
      vertex -2.594606e+003 -4.053404e+003 1.717974e+003
      vertex -2.594606e+003 -4.047860e+003 1.704592e+003
      vertex -1.975554e+003 -4.047860e+003 1.704592e+003
    endloop
  endfacet
  facet normal 3.212929e-001 -8.748989e-001 -3.623848e-001
    outer loop
      vertex -1.964881e+003 -4.043941e+003 1.704592e+003
      vertex -1.960460e+003 -4.047860e+003 1.717974e+003
      vertex -1.975554e+003 -4.053404e+003 1.717974e+003
    endloop
  endfacet
  facet normal 3.212744e-001 -8.748994e-001 -3.624000e-001
    outer loop
      vertex -1.975554e+003 -4.053404e+003 1.717974e+003
      vertex -1.975554e+003 -4.047860e+003 1.704592e+003
      vertex -1.964881e+003 -4.043941e+003 1.704592e+003
    endloop
  endfacet
  facet normal 8.343289e-001 -3.898045e-001 -3.898045e-001
    outer loop
      vertex -1.960460e+003 -4.034478e+003 1.704592e+003
      vertex -1.954208e+003 -4.034478e+003 1.717974e+003
      vertex -1.960460e+003 -4.047860e+003 1.717974e+003
    endloop
  endfacet
  facet normal 8.343353e-001 -3.897977e-001 -3.897977e-001
    outer loop
      vertex -1.960460e+003 -4.047860e+003 1.717974e+003
      vertex -1.964881e+003 -4.043941e+003 1.704592e+003
      vertex -1.960460e+003 -4.034478e+003 1.704592e+003
    endloop
  endfacet
  facet normal 9.059954e-001 0.000000e+000 -4.232876e-001
    outer loop
      vertex -1.960460e+003 -1.914844e+003 1.704592e+003
      vertex -1.954208e+003 -1.914844e+003 1.717974e+003
      vertex -1.954208e+003 -4.034478e+003 1.717974e+003
    endloop
  endfacet
  facet normal 9.059954e-001 0.000000e+000 -4.232876e-001
    outer loop
      vertex -1.954208e+003 -4.034478e+003 1.717974e+003
      vertex -1.960460e+003 -4.034478e+003 1.704592e+003
      vertex -1.960460e+003 -1.914844e+003 1.704592e+003
    endloop
  endfacet
  facet normal 8.343301e-001 3.898050e-001 -3.898017e-001
    outer loop
      vertex -1.964881e+003 -1.905381e+003 1.704592e+003
      vertex -1.960460e+003 -1.901461e+003 1.717974e+003
      vertex -1.954208e+003 -1.914844e+003 1.717974e+003
    endloop
  endfacet
  facet normal 8.343305e-001 3.898005e-001 -3.898053e-001
    outer loop
      vertex -1.954208e+003 -1.914844e+003 1.717974e+003
      vertex -1.960460e+003 -1.914844e+003 1.704592e+003
      vertex -1.964881e+003 -1.905381e+003 1.704592e+003
    endloop
  endfacet
  facet normal 3.212858e-001 8.748987e-001 -3.623917e-001
    outer loop
      vertex -1.975554e+003 -1.901461e+003 1.704592e+003
      vertex -1.975554e+003 -1.895918e+003 1.717974e+003
      vertex -1.960460e+003 -1.901461e+003 1.717974e+003
    endloop
  endfacet
  facet normal 3.212846e-001 8.748997e-001 -3.623902e-001
    outer loop
      vertex -1.960460e+003 -1.901461e+003 1.717974e+003
      vertex -1.964881e+003 -1.905381e+003 1.704592e+003
      vertex -1.975554e+003 -1.901461e+003 1.704592e+003
    endloop
  endfacet
  facet normal 0.000000e+000 9.238808e-001 -3.826805e-001
    outer loop
      vertex -2.594606e+003 -1.901461e+003 1.704592e+003
      vertex -2.594606e+003 -1.895918e+003 1.717974e+003
      vertex -1.975554e+003 -1.895918e+003 1.717974e+003
    endloop
  endfacet
  facet normal 0.000000e+000 9.238808e-001 -3.826805e-001
    outer loop
      vertex -1.975554e+003 -1.895918e+003 1.717974e+003
      vertex -1.975554e+003 -1.901461e+003 1.704592e+003
      vertex -2.594606e+003 -1.901461e+003 1.704592e+003
    endloop
  endfacet
  facet normal -1.391638e-001 3.789568e-001 -9.148908e-001
    outer loop
      vertex -2.594606e+003 -1.901461e+003 1.704592e+003
      vertex -2.594606e+003 -1.914844e+003 1.699049e+003
      vertex -2.605280e+003 -1.905381e+003 1.704592e+003
    endloop
  endfacet
  facet normal -3.403371e-001 1.590017e-001 -9.267627e-001
    outer loop
      vertex -2.605280e+003 -1.905381e+003 1.704592e+003
      vertex -2.594606e+003 -1.914844e+003 1.699049e+003
      vertex -2.609701e+003 -1.914844e+003 1.704592e+003
    endloop
  endfacet
  facet normal -3.447226e-001 0.000000e+000 -9.387046e-001
    outer loop
      vertex -2.594606e+003 -4.034478e+003 1.699049e+003
      vertex -2.609701e+003 -4.034478e+003 1.704592e+003
      vertex -2.609701e+003 -1.914844e+003 1.704592e+003
    endloop
  endfacet
  facet normal -3.447226e-001 0.000000e+000 -9.387046e-001
    outer loop
      vertex -2.609701e+003 -1.914844e+003 1.704592e+003
      vertex -2.594606e+003 -1.914844e+003 1.699049e+003
      vertex -2.594606e+003 -4.034478e+003 1.699049e+003
    endloop
  endfacet
  facet normal -3.403372e-001 -1.589997e-001 -9.267630e-001
    outer loop
      vertex -2.609701e+003 -4.034478e+003 1.704592e+003
      vertex -2.594606e+003 -4.034478e+003 1.699049e+003
      vertex -2.605280e+003 -4.043941e+003 1.704592e+003
    endloop
  endfacet
  facet normal -1.391595e-001 -3.789570e-001 -9.148914e-001
    outer loop
      vertex -2.605280e+003 -4.043941e+003 1.704592e+003
      vertex -2.594606e+003 -4.034478e+003 1.699049e+003
      vertex -2.594606e+003 -4.047860e+003 1.704592e+003
    endloop
  endfacet
  facet normal 0.000000e+000 -3.826805e-001 -9.238808e-001
    outer loop
      vertex -1.975554e+003 -4.034478e+003 1.699049e+003
      vertex -1.975554e+003 -4.047860e+003 1.704592e+003
      vertex -2.594606e+003 -4.047860e+003 1.704592e+003
    endloop
  endfacet
  facet normal 0.000000e+000 -3.826805e-001 -9.238808e-001
    outer loop
      vertex -2.594606e+003 -4.047860e+003 1.704592e+003
      vertex -2.594606e+003 -4.034478e+003 1.699049e+003
      vertex -1.975554e+003 -4.034478e+003 1.699049e+003
    endloop
  endfacet
  facet normal 1.391580e-001 -3.789571e-001 -9.148915e-001
    outer loop
      vertex -1.975554e+003 -4.047860e+003 1.704592e+003
      vertex -1.975554e+003 -4.034478e+003 1.699049e+003
      vertex -1.964881e+003 -4.043941e+003 1.704592e+003
    endloop
  endfacet
  facet normal 3.403323e-001 -1.590017e-001 -9.267645e-001
    outer loop
      vertex -1.964881e+003 -4.043941e+003 1.704592e+003
      vertex -1.975554e+003 -4.034478e+003 1.699049e+003
      vertex -1.960460e+003 -4.034478e+003 1.704592e+003
    endloop
  endfacet
  facet normal 3.447177e-001 0.000000e+000 -9.387064e-001
    outer loop
      vertex -1.975554e+003 -1.914844e+003 1.699049e+003
      vertex -1.960460e+003 -1.914844e+003 1.704592e+003
      vertex -1.960460e+003 -4.034478e+003 1.704592e+003
    endloop
  endfacet
  facet normal 3.447177e-001 0.000000e+000 -9.387064e-001
    outer loop
      vertex -1.960460e+003 -4.034478e+003 1.704592e+003
      vertex -1.975554e+003 -4.034478e+003 1.699049e+003
      vertex -1.975554e+003 -1.914844e+003 1.699049e+003
    endloop
  endfacet
  facet normal 3.403322e-001 1.590037e-001 -9.267642e-001
    outer loop
      vertex -1.960460e+003 -1.914844e+003 1.704592e+003
      vertex -1.975554e+003 -1.914844e+003 1.699049e+003
      vertex -1.964881e+003 -1.905381e+003 1.704592e+003
    endloop
  endfacet
  facet normal 1.391622e-001 3.789569e-001 -9.148910e-001
    outer loop
      vertex -1.964881e+003 -1.905381e+003 1.704592e+003
      vertex -1.975554e+003 -1.914844e+003 1.699049e+003
      vertex -1.975554e+003 -1.901461e+003 1.704592e+003
    endloop
  endfacet
  facet normal 0.000000e+000 3.826805e-001 -9.238808e-001
    outer loop
      vertex -2.594606e+003 -1.914844e+003 1.699049e+003
      vertex -2.594606e+003 -1.901461e+003 1.704592e+003
      vertex -1.975554e+003 -1.901461e+003 1.704592e+003
    endloop
  endfacet
  facet normal 0.000000e+000 3.826805e-001 -9.238808e-001
    outer loop
      vertex -1.975554e+003 -1.901461e+003 1.704592e+003
      vertex -1.975554e+003 -1.914844e+003 1.699049e+003
      vertex -2.594606e+003 -1.914844e+003 1.699049e+003
    endloop
  endfacet
  facet normal 0.000000e+000 0.000000e+000 1.000000e+000
    outer loop
      vertex -2.534796e+003 -2.009497e+003 1.755824e+003
      vertex -2.035364e+003 -2.009497e+003 1.755824e+003
      vertex -1.975554e+003 -1.914844e+003 1.755824e+003
    endloop
  endfacet
  facet normal 0.000000e+000 0.000000e+000 1.000000e+000
    outer loop
      vertex -2.534796e+003 -2.009497e+003 1.755824e+003
      vertex -1.975554e+003 -1.914844e+003 1.755824e+003
      vertex -2.594606e+003 -1.914844e+003 1.755824e+003
    endloop
  endfacet
  facet normal 0.000000e+000 0.000000e+000 1.000000e+000
    outer loop
      vertex -2.534796e+003 -2.009497e+003 1.755824e+003
      vertex -2.594606e+003 -1.914844e+003 1.755824e+003
      vertex -2.594606e+003 -4.034478e+003 1.755824e+003
    endloop
  endfacet
  facet normal 0.000000e+000 0.000000e+000 1.000000e+000
    outer loop
      vertex -2.534796e+003 -3.939825e+003 1.755824e+003
      vertex -2.534796e+003 -2.009497e+003 1.755824e+003
      vertex -2.594606e+003 -4.034478e+003 1.755824e+003
    endloop
  endfacet
  facet normal 0.000000e+000 0.000000e+000 1.000000e+000
    outer loop
      vertex -2.534796e+003 -3.939825e+003 1.755824e+003
      vertex -2.594606e+003 -4.034478e+003 1.755824e+003
      vertex -1.975554e+003 -4.034478e+003 1.755824e+003
    endloop
  endfacet
  facet normal 0.000000e+000 0.000000e+000 1.000000e+000
    outer loop
      vertex -2.035364e+003 -3.939825e+003 1.755824e+003
      vertex -2.534796e+003 -3.939825e+003 1.755824e+003
      vertex -1.975554e+003 -4.034478e+003 1.755824e+003
    endloop
  endfacet
  facet normal 0.000000e+000 0.000000e+000 1.000000e+000
    outer loop
      vertex -2.035364e+003 -3.939825e+003 1.755824e+003
      vertex -1.975554e+003 -4.034478e+003 1.755824e+003
      vertex -1.975554e+003 -1.914844e+003 1.755824e+003
    endloop
  endfacet
  facet normal 0.000000e+000 0.000000e+000 1.000000e+000
    outer loop
      vertex -2.035364e+003 -3.939825e+003 1.755824e+003
      vertex -1.975554e+003 -1.914844e+003 1.755824e+003
      vertex -2.035364e+003 -2.009497e+003 1.755824e+003
    endloop
  endfacet
  facet normal 0.000000e+000 0.000000e+000 -1.000000e+000
    outer loop
      vertex -2.035364e+003 -3.939825e+003 1.699049e+003
      vertex -2.035364e+003 -2.009497e+003 1.699049e+003
      vertex -1.975554e+003 -1.914844e+003 1.699049e+003
    endloop
  endfacet
  facet normal 0.000000e+000 0.000000e+000 -1.000000e+000
    outer loop
      vertex -2.035364e+003 -3.939825e+003 1.699049e+003
      vertex -1.975554e+003 -1.914844e+003 1.699049e+003
      vertex -1.975554e+003 -4.034478e+003 1.699049e+003
    endloop
  endfacet
  facet normal 0.000000e+000 0.000000e+000 -1.000000e+000
    outer loop
      vertex -2.534796e+003 -3.939825e+003 1.699049e+003
      vertex -2.035364e+003 -3.939825e+003 1.699049e+003
      vertex -1.975554e+003 -4.034478e+003 1.699049e+003
    endloop
  endfacet
  facet normal 0.000000e+000 0.000000e+000 -1.000000e+000
    outer loop
      vertex -2.534796e+003 -3.939825e+003 1.699049e+003
      vertex -1.975554e+003 -4.034478e+003 1.699049e+003
      vertex -2.594606e+003 -4.034478e+003 1.699049e+003
    endloop
  endfacet
  facet normal 0.000000e+000 0.000000e+000 -1.000000e+000
    outer loop
      vertex -2.534796e+003 -2.009497e+003 1.699049e+003
      vertex -2.534796e+003 -3.939825e+003 1.699049e+003
      vertex -2.594606e+003 -4.034478e+003 1.699049e+003
    endloop
  endfacet
  facet normal 0.000000e+000 0.000000e+000 -1.000000e+000
    outer loop
      vertex -2.534796e+003 -2.009497e+003 1.699049e+003
      vertex -2.594606e+003 -4.034478e+003 1.699049e+003
      vertex -2.594606e+003 -1.914844e+003 1.699049e+003
    endloop
  endfacet
  facet normal 0.000000e+000 0.000000e+000 -1.000000e+000
    outer loop
      vertex -2.534796e+003 -2.009497e+003 1.699049e+003
      vertex -2.594606e+003 -1.914844e+003 1.699049e+003
      vertex -1.975554e+003 -1.914844e+003 1.699049e+003
    endloop
  endfacet
  facet normal 0.000000e+000 0.000000e+000 -1.000000e+000
    outer loop
      vertex -2.534796e+003 -2.009497e+003 1.699049e+003
      vertex -1.975554e+003 -1.914844e+003 1.699049e+003
      vertex -2.035364e+003 -2.009497e+003 1.699049e+003
    endloop
  endfacet
  facet normal 1.000000e+000 0.000000e+000 0.000000e+000
    outer loop
      vertex -2.534796e+003 -3.939825e+003 1.755824e+003
      vertex -2.534796e+003 -3.939825e+003 1.699049e+003
      vertex -2.534796e+003 -2.009497e+003 1.699049e+003
    endloop
  endfacet
  facet normal 1.000000e+000 0.000000e+000 0.000000e+000
    outer loop
      vertex -2.534796e+003 -2.009497e+003 1.699049e+003
      vertex -2.534796e+003 -2.009497e+003 1.755824e+003
      vertex -2.534796e+003 -3.939825e+003 1.755824e+003
    endloop
  endfacet
  facet normal 0.000000e+000 1.000000e+000 0.000000e+000
    outer loop
      vertex -2.035364e+003 -3.939825e+003 1.755824e+003
      vertex -2.035364e+003 -3.939825e+003 1.699049e+003
      vertex -2.534796e+003 -3.939825e+003 1.699049e+003
    endloop
  endfacet
  facet normal 0.000000e+000 1.000000e+000 0.000000e+000
    outer loop
      vertex -2.534796e+003 -3.939825e+003 1.699049e+003
      vertex -2.534796e+003 -3.939825e+003 1.755824e+003
      vertex -2.035364e+003 -3.939825e+003 1.755824e+003
    endloop
  endfacet
  facet normal -1.000000e+000 0.000000e+000 0.000000e+000
    outer loop
      vertex -2.035364e+003 -3.939825e+003 1.699049e+003
      vertex -2.035364e+003 -3.939825e+003 1.755824e+003
      vertex -2.035364e+003 -2.009497e+003 1.755824e+003
    endloop
  endfacet
  facet normal -1.000000e+000 0.000000e+000 0.000000e+000
    outer loop
      vertex -2.035364e+003 -2.009497e+003 1.755824e+003
      vertex -2.035364e+003 -2.009497e+003 1.699049e+003
      vertex -2.035364e+003 -3.939825e+003 1.699049e+003
    endloop
  endfacet
  facet normal 0.000000e+000 -1.000000e+000 0.000000e+000
    outer loop
      vertex -2.534796e+003 -2.009497e+003 1.755824e+003
      vertex -2.534796e+003 -2.009497e+003 1.699049e+003
      vertex -2.035364e+003 -2.009497e+003 1.699049e+003
    endloop
  endfacet
  facet normal 0.000000e+000 -1.000000e+000 0.000000e+000
    outer loop
      vertex -2.035364e+003 -2.009497e+003 1.699049e+003
      vertex -2.035364e+003 -2.009497e+003 1.755824e+003
      vertex -2.534796e+003 -2.009497e+003 1.755824e+003
    endloop
  endfacet
  facet normal 0.000000e+000 0.000000e+000 1.000000e+000
    outer loop
      vertex -2.594606e+003 -1.914844e+003 1.886140e+003
      vertex -2.594606e+003 -4.034478e+003 1.886140e+003
      vertex -1.975554e+003 -4.034478e+003 1.886140e+003
    endloop
  endfacet
  facet normal 0.000000e+000 0.000000e+000 1.000000e+000
    outer loop
      vertex -2.594606e+003 -1.914844e+003 1.886140e+003
      vertex -1.975554e+003 -4.034478e+003 1.886140e+003
      vertex -1.975554e+003 -1.914844e+003 1.886140e+003
    endloop
  endfacet
  facet normal -1.391638e-001 3.789568e-001 9.148908e-001
    outer loop
      vertex -2.594606e+003 -1.914844e+003 1.886140e+003
      vertex -2.594606e+003 -1.901461e+003 1.880597e+003
      vertex -2.605280e+003 -1.905381e+003 1.880597e+003
    endloop
  endfacet
  facet normal -3.403371e-001 1.590017e-001 9.267627e-001
    outer loop
      vertex -2.594606e+003 -1.914844e+003 1.886140e+003
      vertex -2.605280e+003 -1.905381e+003 1.880597e+003
      vertex -2.609701e+003 -1.914844e+003 1.880597e+003
    endloop
  endfacet
  facet normal -3.447226e-001 0.000000e+000 9.387046e-001
    outer loop
      vertex -2.594606e+003 -1.914844e+003 1.886140e+003
      vertex -2.609701e+003 -1.914844e+003 1.880597e+003
      vertex -2.609701e+003 -4.034478e+003 1.880597e+003
    endloop
  endfacet
  facet normal -3.447226e-001 0.000000e+000 9.387046e-001
    outer loop
      vertex -2.594606e+003 -1.914844e+003 1.886140e+003
      vertex -2.609701e+003 -4.034478e+003 1.880597e+003
      vertex -2.594606e+003 -4.034478e+003 1.886140e+003
    endloop
  endfacet
  facet normal -3.403372e-001 -1.589997e-001 9.267630e-001
    outer loop
      vertex -2.594606e+003 -4.034478e+003 1.886140e+003
      vertex -2.609701e+003 -4.034478e+003 1.880597e+003
      vertex -2.605280e+003 -4.043941e+003 1.880597e+003
    endloop
  endfacet
  facet normal -1.391595e-001 -3.789570e-001 9.148914e-001
    outer loop
      vertex -2.594606e+003 -4.034478e+003 1.886140e+003
      vertex -2.605280e+003 -4.043941e+003 1.880597e+003
      vertex -2.594606e+003 -4.047860e+003 1.880597e+003
    endloop
  endfacet
  facet normal 0.000000e+000 -3.826805e-001 9.238808e-001
    outer loop
      vertex -2.594606e+003 -4.034478e+003 1.886140e+003
      vertex -2.594606e+003 -4.047860e+003 1.880597e+003
      vertex -1.975554e+003 -4.047860e+003 1.880597e+003
    endloop
  endfacet
  facet normal 0.000000e+000 -3.826805e-001 9.238808e-001
    outer loop
      vertex -2.594606e+003 -4.034478e+003 1.886140e+003
      vertex -1.975554e+003 -4.047860e+003 1.880597e+003
      vertex -1.975554e+003 -4.034478e+003 1.886140e+003
    endloop
  endfacet
  facet normal 1.391580e-001 -3.789571e-001 9.148915e-001
    outer loop
      vertex -1.975554e+003 -4.034478e+003 1.886140e+003
      vertex -1.975554e+003 -4.047860e+003 1.880597e+003
      vertex -1.964881e+003 -4.043941e+003 1.880597e+003
    endloop
  endfacet
  facet normal 3.403323e-001 -1.590017e-001 9.267645e-001
    outer loop
      vertex -1.975554e+003 -4.034478e+003 1.886140e+003
      vertex -1.964881e+003 -4.043941e+003 1.880597e+003
      vertex -1.960460e+003 -4.034478e+003 1.880597e+003
    endloop
  endfacet
  facet normal 3.447177e-001 0.000000e+000 9.387064e-001
    outer loop
      vertex -1.975554e+003 -4.034478e+003 1.886140e+003
      vertex -1.960460e+003 -4.034478e+003 1.880597e+003
      vertex -1.960460e+003 -1.914844e+003 1.880597e+003
    endloop
  endfacet
  facet normal 3.447177e-001 0.000000e+000 9.387064e-001
    outer loop
      vertex -1.975554e+003 -4.034478e+003 1.886140e+003
      vertex -1.960460e+003 -1.914844e+003 1.880597e+003
      vertex -1.975554e+003 -1.914844e+003 1.886140e+003
    endloop
  endfacet
  facet normal 3.403322e-001 1.590037e-001 9.267642e-001
    outer loop
      vertex -1.975554e+003 -1.914844e+003 1.886140e+003
      vertex -1.960460e+003 -1.914844e+003 1.880597e+003
      vertex -1.964881e+003 -1.905381e+003 1.880597e+003
    endloop
  endfacet
  facet normal 1.391622e-001 3.789569e-001 9.148910e-001
    outer loop
      vertex -1.975554e+003 -1.914844e+003 1.886140e+003
      vertex -1.964881e+003 -1.905381e+003 1.880597e+003
      vertex -1.975554e+003 -1.901461e+003 1.880597e+003
    endloop
  endfacet
  facet normal 0.000000e+000 3.826805e-001 9.238808e-001
    outer loop
      vertex -1.975554e+003 -1.914844e+003 1.886140e+003
      vertex -1.975554e+003 -1.901461e+003 1.880597e+003
      vertex -2.594606e+003 -1.901461e+003 1.880597e+003
    endloop
  endfacet
  facet normal 0.000000e+000 3.826805e-001 9.238808e-001
    outer loop
      vertex -1.975554e+003 -1.914844e+003 1.886140e+003
      vertex -2.594606e+003 -1.901461e+003 1.880597e+003
      vertex -2.594606e+003 -1.914844e+003 1.886140e+003
    endloop
  endfacet
  facet normal -3.212905e-001 8.748972e-001 3.623911e-001
    outer loop
      vertex -2.594606e+003 -1.901461e+003 1.880597e+003
      vertex -2.594606e+003 -1.895918e+003 1.867215e+003
      vertex -2.609701e+003 -1.901461e+003 1.867215e+003
    endloop
  endfacet
  facet normal -3.212880e-001 8.748993e-001 3.623883e-001
    outer loop
      vertex -2.594606e+003 -1.901461e+003 1.880597e+003
      vertex -2.609701e+003 -1.901461e+003 1.867215e+003
      vertex -2.605280e+003 -1.905381e+003 1.880597e+003
    endloop
  endfacet
  facet normal -8.343294e-001 3.898123e-001 3.897960e-001
    outer loop
      vertex -2.605280e+003 -1.905381e+003 1.880597e+003
      vertex -2.609701e+003 -1.901461e+003 1.867215e+003
      vertex -2.615953e+003 -1.914844e+003 1.867215e+003
    endloop
  endfacet
  facet normal -8.343315e-001 3.897903e-001 3.898134e-001
    outer loop
      vertex -2.605280e+003 -1.905381e+003 1.880597e+003
      vertex -2.615953e+003 -1.914844e+003 1.867215e+003
      vertex -2.609701e+003 -1.914844e+003 1.880597e+003
    endloop
  endfacet
  facet normal -9.059922e-001 0.000000e+000 4.232944e-001
    outer loop
      vertex -2.609701e+003 -1.914844e+003 1.880597e+003
      vertex -2.615953e+003 -1.914844e+003 1.867215e+003
      vertex -2.615953e+003 -4.034478e+003 1.867215e+003
    endloop
  endfacet
  facet normal -9.059922e-001 0.000000e+000 4.232944e-001
    outer loop
      vertex -2.609701e+003 -1.914844e+003 1.880597e+003
      vertex -2.615953e+003 -4.034478e+003 1.867215e+003
      vertex -2.609701e+003 -4.034478e+003 1.880597e+003
    endloop
  endfacet
  facet normal -8.343240e-001 -3.898098e-001 3.898098e-001
    outer loop
      vertex -2.609701e+003 -4.034478e+003 1.880597e+003
      vertex -2.615953e+003 -4.034478e+003 1.867215e+003
      vertex -2.609701e+003 -4.047860e+003 1.867215e+003
    endloop
  endfacet
  facet normal -8.343423e-001 -3.897903e-001 3.897903e-001
    outer loop
      vertex -2.609701e+003 -4.034478e+003 1.880597e+003
      vertex -2.609701e+003 -4.047860e+003 1.867215e+003
      vertex -2.605280e+003 -4.043941e+003 1.880597e+003
    endloop
  endfacet
  facet normal -3.212977e-001 -8.748978e-001 3.623832e-001
    outer loop
      vertex -2.605280e+003 -4.043941e+003 1.880597e+003
      vertex -2.609701e+003 -4.047860e+003 1.867215e+003
      vertex -2.594606e+003 -4.053404e+003 1.867215e+003
    endloop
  endfacet
  facet normal -3.212777e-001 -8.748984e-001 3.623995e-001
    outer loop
      vertex -2.605280e+003 -4.043941e+003 1.880597e+003
      vertex -2.594606e+003 -4.053404e+003 1.867215e+003
      vertex -2.594606e+003 -4.047860e+003 1.880597e+003
    endloop
  endfacet
  facet normal 0.000000e+000 -9.238778e-001 3.826877e-001
    outer loop
      vertex -2.594606e+003 -4.047860e+003 1.880597e+003
      vertex -2.594606e+003 -4.053404e+003 1.867215e+003
      vertex -1.975554e+003 -4.053404e+003 1.867215e+003
    endloop
  endfacet
  facet normal 0.000000e+000 -9.238778e-001 3.826877e-001
    outer loop
      vertex -2.594606e+003 -4.047860e+003 1.880597e+003
      vertex -1.975554e+003 -4.053404e+003 1.867215e+003
      vertex -1.975554e+003 -4.047860e+003 1.880597e+003
    endloop
  endfacet
  facet normal 3.212912e-001 -8.748941e-001 3.623978e-001
    outer loop
      vertex -1.975554e+003 -4.047860e+003 1.880597e+003
      vertex -1.975554e+003 -4.053404e+003 1.867215e+003
      vertex -1.960460e+003 -4.047860e+003 1.867215e+003
    endloop
  endfacet
  facet normal 3.212769e-001 -8.749061e-001 3.623816e-001
    outer loop
      vertex -1.975554e+003 -4.047860e+003 1.880597e+003
      vertex -1.960460e+003 -4.047860e+003 1.867215e+003
      vertex -1.964881e+003 -4.043941e+003 1.880597e+003
    endloop
  endfacet
  facet normal 8.343312e-001 -3.898056e-001 3.897987e-001
    outer loop
      vertex -1.964881e+003 -4.043941e+003 1.880597e+003
      vertex -1.960460e+003 -4.047860e+003 1.867215e+003
      vertex -1.954208e+003 -4.034478e+003 1.867215e+003
    endloop
  endfacet
  facet normal 8.343321e-001 -3.897963e-001 3.898061e-001
    outer loop
      vertex -1.964881e+003 -4.043941e+003 1.880597e+003
      vertex -1.954208e+003 -4.034478e+003 1.867215e+003
      vertex -1.960460e+003 -4.034478e+003 1.880597e+003
    endloop
  endfacet
  facet normal 9.059954e-001 0.000000e+000 4.232876e-001
    outer loop
      vertex -1.960460e+003 -4.034478e+003 1.880597e+003
      vertex -1.954208e+003 -4.034478e+003 1.867215e+003
      vertex -1.954208e+003 -1.914844e+003 1.867215e+003
    endloop
  endfacet
  facet normal 9.059954e-001 0.000000e+000 4.232876e-001
    outer loop
      vertex -1.960460e+003 -4.034478e+003 1.880597e+003
      vertex -1.954208e+003 -1.914844e+003 1.867215e+003
      vertex -1.960460e+003 -1.914844e+003 1.880597e+003
    endloop
  endfacet
  facet normal 8.343289e-001 3.898045e-001 3.898045e-001
    outer loop
      vertex -1.960460e+003 -1.914844e+003 1.880597e+003
      vertex -1.954208e+003 -1.914844e+003 1.867215e+003
      vertex -1.960460e+003 -1.901461e+003 1.867215e+003
    endloop
  endfacet
  facet normal 8.343320e-001 3.898013e-001 3.898013e-001
    outer loop
      vertex -1.960460e+003 -1.914844e+003 1.880597e+003
      vertex -1.960460e+003 -1.901461e+003 1.867215e+003
      vertex -1.964881e+003 -1.905381e+003 1.880597e+003
    endloop
  endfacet
  facet normal 3.212860e-001 8.748991e-001 3.623905e-001
    outer loop
      vertex -1.964881e+003 -1.905381e+003 1.880597e+003
      vertex -1.960460e+003 -1.901461e+003 1.867215e+003
      vertex -1.975554e+003 -1.895918e+003 1.867215e+003
    endloop
  endfacet
  facet normal 3.212843e-001 8.748991e-001 3.623919e-001
    outer loop
      vertex -1.964881e+003 -1.905381e+003 1.880597e+003
      vertex -1.975554e+003 -1.895918e+003 1.867215e+003
      vertex -1.975554e+003 -1.901461e+003 1.880597e+003
    endloop
  endfacet
  facet normal 0.000000e+000 9.238808e-001 3.826805e-001
    outer loop
      vertex -1.975554e+003 -1.901461e+003 1.880597e+003
      vertex -1.975554e+003 -1.895918e+003 1.867215e+003
      vertex -2.594606e+003 -1.895918e+003 1.867215e+003
    endloop
  endfacet
  facet normal 0.000000e+000 9.238808e-001 3.826805e-001
    outer loop
      vertex -1.975554e+003 -1.901461e+003 1.880597e+003
      vertex -2.594606e+003 -1.895918e+003 1.867215e+003
      vertex -2.594606e+003 -1.901461e+003 1.880597e+003
    endloop
  endfacet
  facet normal -3.447226e-001 9.387046e-001 0.000000e+000
    outer loop
      vertex -2.594606e+003 -1.895918e+003 1.867215e+003
      vertex -2.594606e+003 -1.895918e+003 1.848290e+003
      vertex -2.609701e+003 -1.901461e+003 1.848290e+003
    endloop
  endfacet
  facet normal -3.447226e-001 9.387046e-001 0.000000e+000
    outer loop
      vertex -2.594606e+003 -1.895918e+003 1.867215e+003
      vertex -2.609701e+003 -1.901461e+003 1.848290e+003
      vertex -2.609701e+003 -1.901461e+003 1.867215e+003
    endloop
  endfacet
  facet normal -9.059922e-001 4.232944e-001 0.000000e+000
    outer loop
      vertex -2.609701e+003 -1.901461e+003 1.867215e+003
      vertex -2.609701e+003 -1.901461e+003 1.848290e+003
      vertex -2.615953e+003 -1.914844e+003 1.848290e+003
    endloop
  endfacet
  facet normal -9.059922e-001 4.232944e-001 0.000000e+000
    outer loop
      vertex -2.609701e+003 -1.901461e+003 1.867215e+003
      vertex -2.615953e+003 -1.914844e+003 1.848290e+003
      vertex -2.615953e+003 -1.914844e+003 1.867215e+003
    endloop
  endfacet
  facet normal -1.000000e+000 0.000000e+000 0.000000e+000
    outer loop
      vertex -2.615953e+003 -1.914844e+003 1.867215e+003
      vertex -2.615953e+003 -1.914844e+003 1.848290e+003
      vertex -2.615953e+003 -4.034478e+003 1.848290e+003
    endloop
  endfacet
  facet normal -1.000000e+000 0.000000e+000 0.000000e+000
    outer loop
      vertex -2.615953e+003 -1.914844e+003 1.867215e+003
      vertex -2.615953e+003 -4.034478e+003 1.848290e+003
      vertex -2.615953e+003 -4.034478e+003 1.867215e+003
    endloop
  endfacet
  facet normal -9.059922e-001 -4.232944e-001 0.000000e+000
    outer loop
      vertex -2.615953e+003 -4.034478e+003 1.867215e+003
      vertex -2.615953e+003 -4.034478e+003 1.848290e+003
      vertex -2.609701e+003 -4.047860e+003 1.848290e+003
    endloop
  endfacet
  facet normal -9.059922e-001 -4.232944e-001 0.000000e+000
    outer loop
      vertex -2.615953e+003 -4.034478e+003 1.867215e+003
      vertex -2.609701e+003 -4.047860e+003 1.848290e+003
      vertex -2.609701e+003 -4.047860e+003 1.867215e+003
    endloop
  endfacet
  facet normal -3.447292e-001 -9.387022e-001 0.000000e+000
    outer loop
      vertex -2.609701e+003 -4.047860e+003 1.867215e+003
      vertex -2.609701e+003 -4.047860e+003 1.848290e+003
      vertex -2.594606e+003 -4.053404e+003 1.848290e+003
    endloop
  endfacet
  facet normal -3.447292e-001 -9.387022e-001 0.000000e+000
    outer loop
      vertex -2.609701e+003 -4.047860e+003 1.867215e+003
      vertex -2.594606e+003 -4.053404e+003 1.848290e+003
      vertex -2.594606e+003 -4.053404e+003 1.867215e+003
    endloop
  endfacet
  facet normal 0.000000e+000 -1.000000e+000 0.000000e+000
    outer loop
      vertex -2.594606e+003 -4.053404e+003 1.867215e+003
      vertex -2.594606e+003 -4.053404e+003 1.848290e+003
      vertex -1.975554e+003 -4.053404e+003 1.848290e+003
    endloop
  endfacet
  facet normal 0.000000e+000 -1.000000e+000 0.000000e+000
    outer loop
      vertex -2.594606e+003 -4.053404e+003 1.867215e+003
      vertex -1.975554e+003 -4.053404e+003 1.848290e+003
      vertex -1.975554e+003 -4.053404e+003 1.867215e+003
    endloop
  endfacet
  facet normal 3.447244e-001 -9.387040e-001 0.000000e+000
    outer loop
      vertex -1.975554e+003 -4.053404e+003 1.867215e+003
      vertex -1.975554e+003 -4.053404e+003 1.848290e+003
      vertex -1.960460e+003 -4.047860e+003 1.848290e+003
    endloop
  endfacet
  facet normal 3.447244e-001 -9.387040e-001 0.000000e+000
    outer loop
      vertex -1.975554e+003 -4.053404e+003 1.867215e+003
      vertex -1.960460e+003 -4.047860e+003 1.848290e+003
      vertex -1.960460e+003 -4.047860e+003 1.867215e+003
    endloop
  endfacet
  facet normal 9.059954e-001 -4.232876e-001 0.000000e+000
    outer loop
      vertex -1.960460e+003 -4.047860e+003 1.867215e+003
      vertex -1.960460e+003 -4.047860e+003 1.848290e+003
      vertex -1.954208e+003 -4.034478e+003 1.848290e+003
    endloop
  endfacet
  facet normal 9.059954e-001 -4.232876e-001 0.000000e+000
    outer loop
      vertex -1.960460e+003 -4.047860e+003 1.867215e+003
      vertex -1.954208e+003 -4.034478e+003 1.848290e+003
      vertex -1.954208e+003 -4.034478e+003 1.867215e+003
    endloop
  endfacet
  facet normal 1.000000e+000 0.000000e+000 0.000000e+000
    outer loop
      vertex -1.954208e+003 -4.034478e+003 1.867215e+003
      vertex -1.954208e+003 -4.034478e+003 1.848290e+003
      vertex -1.954208e+003 -1.914844e+003 1.848290e+003
    endloop
  endfacet
  facet normal 1.000000e+000 0.000000e+000 0.000000e+000
    outer loop
      vertex -1.954208e+003 -4.034478e+003 1.867215e+003
      vertex -1.954208e+003 -1.914844e+003 1.848290e+003
      vertex -1.954208e+003 -1.914844e+003 1.867215e+003
    endloop
  endfacet
  facet normal 9.059954e-001 4.232876e-001 0.000000e+000
    outer loop
      vertex -1.954208e+003 -1.914844e+003 1.867215e+003
      vertex -1.954208e+003 -1.914844e+003 1.848290e+003
      vertex -1.960460e+003 -1.901461e+003 1.848290e+003
    endloop
  endfacet
  facet normal 9.059954e-001 4.232876e-001 0.000000e+000
    outer loop
      vertex -1.954208e+003 -1.914844e+003 1.867215e+003
      vertex -1.960460e+003 -1.901461e+003 1.848290e+003
      vertex -1.960460e+003 -1.901461e+003 1.867215e+003
    endloop
  endfacet
  facet normal 3.447177e-001 9.387064e-001 0.000000e+000
    outer loop
      vertex -1.960460e+003 -1.901461e+003 1.867215e+003
      vertex -1.960460e+003 -1.901461e+003 1.848290e+003
      vertex -1.975554e+003 -1.895918e+003 1.848290e+003
    endloop
  endfacet
  facet normal 3.447177e-001 9.387064e-001 0.000000e+000
    outer loop
      vertex -1.960460e+003 -1.901461e+003 1.867215e+003
      vertex -1.975554e+003 -1.895918e+003 1.848290e+003
      vertex -1.975554e+003 -1.895918e+003 1.867215e+003
    endloop
  endfacet
  facet normal 0.000000e+000 1.000000e+000 0.000000e+000
    outer loop
      vertex -1.975554e+003 -1.895918e+003 1.867215e+003
      vertex -1.975554e+003 -1.895918e+003 1.848290e+003
      vertex -2.594606e+003 -1.895918e+003 1.848290e+003
    endloop
  endfacet
  facet normal 0.000000e+000 1.000000e+000 0.000000e+000
    outer loop
      vertex -1.975554e+003 -1.895918e+003 1.867215e+003
      vertex -2.594606e+003 -1.895918e+003 1.848290e+003
      vertex -2.594606e+003 -1.895918e+003 1.867215e+003
    endloop
  endfacet
  facet normal -3.212876e-001 8.748981e-001 -3.623914e-001
    outer loop
      vertex -2.594606e+003 -1.895918e+003 1.848290e+003
      vertex -2.594606e+003 -1.901461e+003 1.834908e+003
      vertex -2.605280e+003 -1.905381e+003 1.834908e+003
    endloop
  endfacet
  facet normal -3.212908e-001 8.748980e-001 -3.623889e-001
    outer loop
      vertex -2.594606e+003 -1.895918e+003 1.848290e+003
      vertex -2.605280e+003 -1.905381e+003 1.834908e+003
      vertex -2.609701e+003 -1.901461e+003 1.848290e+003
    endloop
  endfacet
  facet normal -8.343390e-001 3.897938e-001 -3.897938e-001
    outer loop
      vertex -2.609701e+003 -1.901461e+003 1.848290e+003
      vertex -2.605280e+003 -1.905381e+003 1.834908e+003
      vertex -2.609701e+003 -1.914844e+003 1.834908e+003
    endloop
  endfacet
  facet normal -8.343240e-001 3.898098e-001 -3.898098e-001
    outer loop
      vertex -2.609701e+003 -1.901461e+003 1.848290e+003
      vertex -2.609701e+003 -1.914844e+003 1.834908e+003
      vertex -2.615953e+003 -1.914844e+003 1.848290e+003
    endloop
  endfacet
  facet normal -9.059922e-001 0.000000e+000 -4.232944e-001
    outer loop
      vertex -2.615953e+003 -1.914844e+003 1.848290e+003
      vertex -2.609701e+003 -1.914844e+003 1.834908e+003
      vertex -2.609701e+003 -4.034478e+003 1.834908e+003
    endloop
  endfacet
  facet normal -9.059922e-001 0.000000e+000 -4.232944e-001
    outer loop
      vertex -2.615953e+003 -1.914844e+003 1.848290e+003
      vertex -2.609701e+003 -4.034478e+003 1.834908e+003
      vertex -2.615953e+003 -4.034478e+003 1.848290e+003
    endloop
  endfacet
  facet normal -8.343332e-001 -3.897860e-001 -3.898141e-001
    outer loop
      vertex -2.615953e+003 -4.034478e+003 1.848290e+003
      vertex -2.609701e+003 -4.034478e+003 1.834908e+003
      vertex -2.605280e+003 -4.043941e+003 1.834908e+003
    endloop
  endfacet
  facet normal -8.343305e-001 -3.898129e-001 -3.897929e-001
    outer loop
      vertex -2.615953e+003 -4.034478e+003 1.848290e+003
      vertex -2.605280e+003 -4.043941e+003 1.834908e+003
      vertex -2.609701e+003 -4.047860e+003 1.848290e+003
    endloop
  endfacet
  facet normal -3.212804e-001 -8.749056e-001 -3.623797e-001
    outer loop
      vertex -2.609701e+003 -4.047860e+003 1.848290e+003
      vertex -2.605280e+003 -4.043941e+003 1.834908e+003
      vertex -2.594606e+003 -4.047860e+003 1.834908e+003
    endloop
  endfacet
  facet normal -3.212959e-001 -8.748927e-001 -3.623972e-001
    outer loop
      vertex -2.609701e+003 -4.047860e+003 1.848290e+003
      vertex -2.594606e+003 -4.047860e+003 1.834908e+003
      vertex -2.594606e+003 -4.053404e+003 1.848290e+003
    endloop
  endfacet
  facet normal 0.000000e+000 -9.238778e-001 -3.826877e-001
    outer loop
      vertex -2.594606e+003 -4.053404e+003 1.848290e+003
      vertex -2.594606e+003 -4.047860e+003 1.834908e+003
      vertex -1.975554e+003 -4.047860e+003 1.834908e+003
    endloop
  endfacet
  facet normal 0.000000e+000 -9.238778e-001 -3.826877e-001
    outer loop
      vertex -2.594606e+003 -4.053404e+003 1.848290e+003
      vertex -1.975554e+003 -4.047860e+003 1.834908e+003
      vertex -1.975554e+003 -4.053404e+003 1.848290e+003
    endloop
  endfacet
  facet normal 3.212744e-001 -8.748994e-001 -3.624000e-001
    outer loop
      vertex -1.975554e+003 -4.053404e+003 1.848290e+003
      vertex -1.975554e+003 -4.047860e+003 1.834908e+003
      vertex -1.964881e+003 -4.043941e+003 1.834908e+003
    endloop
  endfacet
  facet normal 3.212929e-001 -8.748989e-001 -3.623848e-001
    outer loop
      vertex -1.975554e+003 -4.053404e+003 1.848290e+003
      vertex -1.964881e+003 -4.043941e+003 1.834908e+003
      vertex -1.960460e+003 -4.047860e+003 1.848290e+003
    endloop
  endfacet
  facet normal 8.343353e-001 -3.897977e-001 -3.897977e-001
    outer loop
      vertex -1.960460e+003 -4.047860e+003 1.848290e+003
      vertex -1.964881e+003 -4.043941e+003 1.834908e+003
      vertex -1.960460e+003 -4.034478e+003 1.834908e+003
    endloop
  endfacet
  facet normal 8.343289e-001 -3.898045e-001 -3.898045e-001
    outer loop
      vertex -1.960460e+003 -4.047860e+003 1.848290e+003
      vertex -1.960460e+003 -4.034478e+003 1.834908e+003
      vertex -1.954208e+003 -4.034478e+003 1.848290e+003
    endloop
  endfacet
  facet normal 9.059954e-001 0.000000e+000 -4.232876e-001
    outer loop
      vertex -1.954208e+003 -4.034478e+003 1.848290e+003
      vertex -1.960460e+003 -4.034478e+003 1.834908e+003
      vertex -1.960460e+003 -1.914844e+003 1.834908e+003
    endloop
  endfacet
  facet normal 9.059954e-001 0.000000e+000 -4.232876e-001
    outer loop
      vertex -1.954208e+003 -4.034478e+003 1.848290e+003
      vertex -1.960460e+003 -1.914844e+003 1.834908e+003
      vertex -1.954208e+003 -1.914844e+003 1.848290e+003
    endloop
  endfacet
  facet normal 8.343305e-001 3.898005e-001 -3.898053e-001
    outer loop
      vertex -1.954208e+003 -1.914844e+003 1.848290e+003
      vertex -1.960460e+003 -1.914844e+003 1.834908e+003
      vertex -1.964881e+003 -1.905381e+003 1.834908e+003
    endloop
  endfacet
  facet normal 8.343301e-001 3.898050e-001 -3.898017e-001
    outer loop
      vertex -1.954208e+003 -1.914844e+003 1.848290e+003
      vertex -1.964881e+003 -1.905381e+003 1.834908e+003
      vertex -1.960460e+003 -1.901461e+003 1.848290e+003
    endloop
  endfacet
  facet normal 3.212846e-001 8.748997e-001 -3.623902e-001
    outer loop
      vertex -1.960460e+003 -1.901461e+003 1.848290e+003
      vertex -1.964881e+003 -1.905381e+003 1.834908e+003
      vertex -1.975554e+003 -1.901461e+003 1.834908e+003
    endloop
  endfacet
  facet normal 3.212858e-001 8.748987e-001 -3.623917e-001
    outer loop
      vertex -1.960460e+003 -1.901461e+003 1.848290e+003
      vertex -1.975554e+003 -1.901461e+003 1.834908e+003
      vertex -1.975554e+003 -1.895918e+003 1.848290e+003
    endloop
  endfacet
  facet normal 0.000000e+000 9.238808e-001 -3.826805e-001
    outer loop
      vertex -1.975554e+003 -1.895918e+003 1.848290e+003
      vertex -1.975554e+003 -1.901461e+003 1.834908e+003
      vertex -2.594606e+003 -1.901461e+003 1.834908e+003
    endloop
  endfacet
  facet normal 0.000000e+000 9.238808e-001 -3.826805e-001
    outer loop
      vertex -1.975554e+003 -1.895918e+003 1.848290e+003
      vertex -2.594606e+003 -1.901461e+003 1.834908e+003
      vertex -2.594606e+003 -1.895918e+003 1.848290e+003
    endloop
  endfacet
  facet normal -1.391638e-001 3.789568e-001 -9.148908e-001
    outer loop
      vertex -2.594606e+003 -1.901461e+003 1.834908e+003
      vertex -2.594606e+003 -1.914844e+003 1.829365e+003
      vertex -2.605280e+003 -1.905381e+003 1.834908e+003
    endloop
  endfacet
  facet normal -3.403371e-001 1.590017e-001 -9.267627e-001
    outer loop
      vertex -2.605280e+003 -1.905381e+003 1.834908e+003
      vertex -2.594606e+003 -1.914844e+003 1.829365e+003
      vertex -2.609701e+003 -1.914844e+003 1.834908e+003
    endloop
  endfacet
  facet normal -3.447226e-001 0.000000e+000 -9.387046e-001
    outer loop
      vertex -2.609701e+003 -1.914844e+003 1.834908e+003
      vertex -2.594606e+003 -1.914844e+003 1.829365e+003
      vertex -2.594606e+003 -4.034478e+003 1.829365e+003
    endloop
  endfacet
  facet normal -3.447226e-001 0.000000e+000 -9.387046e-001
    outer loop
      vertex -2.609701e+003 -1.914844e+003 1.834908e+003
      vertex -2.594606e+003 -4.034478e+003 1.829365e+003
      vertex -2.609701e+003 -4.034478e+003 1.834908e+003
    endloop
  endfacet
  facet normal -3.403372e-001 -1.589997e-001 -9.267630e-001
    outer loop
      vertex -2.609701e+003 -4.034478e+003 1.834908e+003
      vertex -2.594606e+003 -4.034478e+003 1.829365e+003
      vertex -2.605280e+003 -4.043941e+003 1.834908e+003
    endloop
  endfacet
  facet normal -1.391595e-001 -3.789570e-001 -9.148914e-001
    outer loop
      vertex -2.605280e+003 -4.043941e+003 1.834908e+003
      vertex -2.594606e+003 -4.034478e+003 1.829365e+003
      vertex -2.594606e+003 -4.047860e+003 1.834908e+003
    endloop
  endfacet
  facet normal 0.000000e+000 -3.826805e-001 -9.238808e-001
    outer loop
      vertex -2.594606e+003 -4.047860e+003 1.834908e+003
      vertex -2.594606e+003 -4.034478e+003 1.829365e+003
      vertex -1.975554e+003 -4.034478e+003 1.829365e+003
    endloop
  endfacet
  facet normal 0.000000e+000 -3.826805e-001 -9.238808e-001
    outer loop
      vertex -2.594606e+003 -4.047860e+003 1.834908e+003
      vertex -1.975554e+003 -4.034478e+003 1.829365e+003
      vertex -1.975554e+003 -4.047860e+003 1.834908e+003
    endloop
  endfacet
  facet normal 1.391580e-001 -3.789571e-001 -9.148915e-001
    outer loop
      vertex -1.975554e+003 -4.047860e+003 1.834908e+003
      vertex -1.975554e+003 -4.034478e+003 1.829365e+003
      vertex -1.964881e+003 -4.043941e+003 1.834908e+003
    endloop
  endfacet
  facet normal 3.403323e-001 -1.590017e-001 -9.267645e-001
    outer loop
      vertex -1.964881e+003 -4.043941e+003 1.834908e+003
      vertex -1.975554e+003 -4.034478e+003 1.829365e+003
      vertex -1.960460e+003 -4.034478e+003 1.834908e+003
    endloop
  endfacet
  facet normal 3.447177e-001 0.000000e+000 -9.387064e-001
    outer loop
      vertex -1.960460e+003 -4.034478e+003 1.834908e+003
      vertex -1.975554e+003 -4.034478e+003 1.829365e+003
      vertex -1.975554e+003 -1.914844e+003 1.829365e+003
    endloop
  endfacet
  facet normal 3.447177e-001 0.000000e+000 -9.387064e-001
    outer loop
      vertex -1.960460e+003 -4.034478e+003 1.834908e+003
      vertex -1.975554e+003 -1.914844e+003 1.829365e+003
      vertex -1.960460e+003 -1.914844e+003 1.834908e+003
    endloop
  endfacet
  facet normal 3.403322e-001 1.590037e-001 -9.267642e-001
    outer loop
      vertex -1.960460e+003 -1.914844e+003 1.834908e+003
      vertex -1.975554e+003 -1.914844e+003 1.829365e+003
      vertex -1.964881e+003 -1.905381e+003 1.834908e+003
    endloop
  endfacet
  facet normal 1.391622e-001 3.789569e-001 -9.148910e-001
    outer loop
      vertex -1.964881e+003 -1.905381e+003 1.834908e+003
      vertex -1.975554e+003 -1.914844e+003 1.829365e+003
      vertex -1.975554e+003 -1.901461e+003 1.834908e+003
    endloop
  endfacet
  facet normal 0.000000e+000 3.826805e-001 -9.238808e-001
    outer loop
      vertex -1.975554e+003 -1.901461e+003 1.834908e+003
      vertex -1.975554e+003 -1.914844e+003 1.829365e+003
      vertex -2.594606e+003 -1.914844e+003 1.829365e+003
    endloop
  endfacet
  facet normal 0.000000e+000 3.826805e-001 -9.238808e-001
    outer loop
      vertex -1.975554e+003 -1.901461e+003 1.834908e+003
      vertex -2.594606e+003 -1.914844e+003 1.829365e+003
      vertex -2.594606e+003 -1.901461e+003 1.834908e+003
    endloop
  endfacet
  facet normal 0.000000e+000 0.000000e+000 -1.000000e+000
    outer loop
      vertex -1.975554e+003 -1.914844e+003 1.829365e+003
      vertex -1.975554e+003 -4.034478e+003 1.829365e+003
      vertex -2.594606e+003 -4.034478e+003 1.829365e+003
    endloop
  endfacet
  facet normal 0.000000e+000 0.000000e+000 -1.000000e+000
    outer loop
      vertex -1.975554e+003 -1.914844e+003 1.829365e+003
      vertex -2.594606e+003 -4.034478e+003 1.829365e+003
      vertex -2.594606e+003 -1.914844e+003 1.829365e+003
    endloop
  endfacet
  facet normal 0.000000e+000 0.000000e+000 1.000000e+000
    outer loop
      vertex -2.534796e+003 -2.009497e+003 1.832375e+003
      vertex -2.534796e+003 -3.939825e+003 1.832375e+003
      vertex -2.035364e+003 -3.939825e+003 1.832375e+003
    endloop
  endfacet
  facet normal 0.000000e+000 0.000000e+000 1.000000e+000
    outer loop
      vertex -2.534796e+003 -2.009497e+003 1.832375e+003
      vertex -2.035364e+003 -3.939825e+003 1.832375e+003
      vertex -2.035364e+003 -2.009497e+003 1.832375e+003
    endloop
  endfacet
  facet normal 1.000000e+000 0.000000e+000 0.000000e+000
    outer loop
      vertex -2.534796e+003 -2.009497e+003 1.832375e+003
      vertex -2.534796e+003 -2.009497e+003 1.832375e+003
      vertex -2.534796e+003 -2.009497e+003 1.832375e+003
    endloop
  endfacet
  facet normal 1.000000e+000 0.000000e+000 0.000000e+000
    outer loop
      vertex -2.534796e+003 -2.009497e+003 1.832375e+003
      vertex -2.534796e+003 -2.009497e+003 1.832375e+003
      vertex -2.534796e+003 -3.939825e+003 1.832375e+003
    endloop
  endfacet
  facet normal 1.000000e+000 0.000000e+000 0.000000e+000
    outer loop
      vertex -2.534796e+003 -2.009497e+003 1.832375e+003
      vertex -2.534796e+003 -3.939825e+003 1.832375e+003
      vertex -2.534796e+003 -3.939825e+003 1.832375e+003
    endloop
  endfacet
  facet normal 1.000000e+000 0.000000e+000 0.000000e+000
    outer loop
      vertex -2.534796e+003 -3.939825e+003 1.832375e+003
      vertex -2.534796e+003 -3.939825e+003 1.832375e+003
      vertex -2.534796e+003 -3.939825e+003 1.832375e+003
    endloop
  endfacet
  facet normal 1.000000e+000 0.000000e+000 0.000000e+000
    outer loop
      vertex -2.534796e+003 -3.939825e+003 1.832375e+003
      vertex -2.534796e+003 -3.939825e+003 1.832375e+003
      vertex -2.035364e+003 -3.939825e+003 1.832375e+003
    endloop
  endfacet
  facet normal 1.000000e+000 0.000000e+000 0.000000e+000
    outer loop
      vertex -2.534796e+003 -3.939825e+003 1.832375e+003
      vertex -2.035364e+003 -3.939825e+003 1.832375e+003
      vertex -2.035364e+003 -3.939825e+003 1.832375e+003
    endloop
  endfacet
  facet normal 1.000000e+000 0.000000e+000 0.000000e+000
    outer loop
      vertex -2.035364e+003 -3.939825e+003 1.832375e+003
      vertex -2.035364e+003 -3.939825e+003 1.832375e+003
      vertex -2.035364e+003 -3.939825e+003 1.832375e+003
    endloop
  endfacet
  facet normal 1.000000e+000 0.000000e+000 0.000000e+000
    outer loop
      vertex -2.035364e+003 -3.939825e+003 1.832375e+003
      vertex -2.035364e+003 -3.939825e+003 1.832375e+003
      vertex -2.035364e+003 -2.009497e+003 1.832375e+003
    endloop
  endfacet
  facet normal 1.000000e+000 0.000000e+000 0.000000e+000
    outer loop
      vertex -2.035364e+003 -3.939825e+003 1.832375e+003
      vertex -2.035364e+003 -2.009497e+003 1.832375e+003
      vertex -2.035364e+003 -2.009497e+003 1.832375e+003
    endloop
  endfacet
  facet normal 1.000000e+000 0.000000e+000 0.000000e+000
    outer loop
      vertex -2.035364e+003 -2.009497e+003 1.832375e+003
      vertex -2.035364e+003 -2.009497e+003 1.832375e+003
      vertex -2.035364e+003 -2.009497e+003 1.832375e+003
    endloop
  endfacet
  facet normal 1.000000e+000 0.000000e+000 0.000000e+000
    outer loop
      vertex -2.035364e+003 -2.009497e+003 1.832375e+003
      vertex -2.035364e+003 -2.009497e+003 1.832375e+003
      vertex -2.534796e+003 -2.009497e+003 1.832375e+003
    endloop
  endfacet
  facet normal 1.000000e+000 0.000000e+000 0.000000e+000
    outer loop
      vertex -2.035364e+003 -2.009497e+003 1.832375e+003
      vertex -2.534796e+003 -2.009497e+003 1.832375e+003
      vertex -2.534796e+003 -2.009497e+003 1.832375e+003
    endloop
  endfacet
  facet normal 1.000000e+000 0.000000e+000 0.000000e+000
    outer loop
      vertex -2.534796e+003 -2.009497e+003 1.832375e+003
      vertex -2.534796e+003 -2.009497e+003 1.712375e+003
      vertex -2.534796e+003 -2.009497e+003 1.712375e+003
    endloop
  endfacet
  facet normal 1.000000e+000 0.000000e+000 0.000000e+000
    outer loop
      vertex -2.534796e+003 -2.009497e+003 1.832375e+003
      vertex -2.534796e+003 -2.009497e+003 1.712375e+003
      vertex -2.534796e+003 -2.009497e+003 1.832375e+003
    endloop
  endfacet
  facet normal -1.000000e+000 0.000000e+000 0.000000e+000
    outer loop
      vertex -2.534796e+003 -2.009497e+003 1.832375e+003
      vertex -2.534796e+003 -2.009497e+003 1.712375e+003
      vertex -2.534796e+003 -3.939825e+003 1.712375e+003
    endloop
  endfacet
  facet normal -1.000000e+000 0.000000e+000 0.000000e+000
    outer loop
      vertex -2.534796e+003 -2.009497e+003 1.832375e+003
      vertex -2.534796e+003 -3.939825e+003 1.712375e+003
      vertex -2.534796e+003 -3.939825e+003 1.832375e+003
    endloop
  endfacet
  facet normal 1.000000e+000 0.000000e+000 0.000000e+000
    outer loop
      vertex -2.534796e+003 -3.939825e+003 1.832375e+003
      vertex -2.534796e+003 -3.939825e+003 1.712375e+003
      vertex -2.534796e+003 -3.939825e+003 1.712375e+003
    endloop
  endfacet
  facet normal 1.000000e+000 0.000000e+000 0.000000e+000
    outer loop
      vertex -2.534796e+003 -3.939825e+003 1.832375e+003
      vertex -2.534796e+003 -3.939825e+003 1.712375e+003
      vertex -2.534796e+003 -3.939825e+003 1.832375e+003
    endloop
  endfacet
  facet normal 0.000000e+000 -1.000000e+000 0.000000e+000
    outer loop
      vertex -2.534796e+003 -3.939825e+003 1.832375e+003
      vertex -2.534796e+003 -3.939825e+003 1.712375e+003
      vertex -2.035364e+003 -3.939825e+003 1.712375e+003
    endloop
  endfacet
  facet normal 0.000000e+000 -1.000000e+000 0.000000e+000
    outer loop
      vertex -2.534796e+003 -3.939825e+003 1.832375e+003
      vertex -2.035364e+003 -3.939825e+003 1.712375e+003
      vertex -2.035364e+003 -3.939825e+003 1.832375e+003
    endloop
  endfacet
  facet normal 1.000000e+000 0.000000e+000 0.000000e+000
    outer loop
      vertex -2.035364e+003 -3.939825e+003 1.832375e+003
      vertex -2.035364e+003 -3.939825e+003 1.712375e+003
      vertex -2.035364e+003 -3.939825e+003 1.712375e+003
    endloop
  endfacet
  facet normal 1.000000e+000 0.000000e+000 0.000000e+000
    outer loop
      vertex -2.035364e+003 -3.939825e+003 1.832375e+003
      vertex -2.035364e+003 -3.939825e+003 1.712375e+003
      vertex -2.035364e+003 -3.939825e+003 1.832375e+003
    endloop
  endfacet
  facet normal 1.000000e+000 0.000000e+000 0.000000e+000
    outer loop
      vertex -2.035364e+003 -3.939825e+003 1.832375e+003
      vertex -2.035364e+003 -3.939825e+003 1.712375e+003
      vertex -2.035364e+003 -2.009497e+003 1.712375e+003
    endloop
  endfacet
  facet normal 1.000000e+000 0.000000e+000 0.000000e+000
    outer loop
      vertex -2.035364e+003 -3.939825e+003 1.832375e+003
      vertex -2.035364e+003 -2.009497e+003 1.712375e+003
      vertex -2.035364e+003 -2.009497e+003 1.832375e+003
    endloop
  endfacet
  facet normal 1.000000e+000 0.000000e+000 0.000000e+000
    outer loop
      vertex -2.035364e+003 -2.009497e+003 1.832375e+003
      vertex -2.035364e+003 -2.009497e+003 1.712375e+003
      vertex -2.035364e+003 -2.009497e+003 1.712375e+003
    endloop
  endfacet
  facet normal 1.000000e+000 0.000000e+000 0.000000e+000
    outer loop
      vertex -2.035364e+003 -2.009497e+003 1.832375e+003
      vertex -2.035364e+003 -2.009497e+003 1.712375e+003
      vertex -2.035364e+003 -2.009497e+003 1.832375e+003
    endloop
  endfacet
  facet normal 0.000000e+000 1.000000e+000 0.000000e+000
    outer loop
      vertex -2.035364e+003 -2.009497e+003 1.832375e+003
      vertex -2.035364e+003 -2.009497e+003 1.712375e+003
      vertex -2.534796e+003 -2.009497e+003 1.712375e+003
    endloop
  endfacet
  facet normal 0.000000e+000 1.000000e+000 0.000000e+000
    outer loop
      vertex -2.035364e+003 -2.009497e+003 1.832375e+003
      vertex -2.534796e+003 -2.009497e+003 1.712375e+003
      vertex -2.534796e+003 -2.009497e+003 1.832375e+003
    endloop
  endfacet
  facet normal 1.000000e+000 0.000000e+000 0.000000e+000
    outer loop
      vertex -2.534796e+003 -2.009497e+003 1.712375e+003
      vertex -2.534796e+003 -2.009497e+003 1.712375e+003
      vertex -2.534796e+003 -2.009497e+003 1.712375e+003
    endloop
  endfacet
  facet normal 1.000000e+000 0.000000e+000 0.000000e+000
    outer loop
      vertex -2.534796e+003 -2.009497e+003 1.712375e+003
      vertex -2.534796e+003 -2.009497e+003 1.712375e+003
      vertex -2.534796e+003 -3.939825e+003 1.712375e+003
    endloop
  endfacet
  facet normal 1.000000e+000 0.000000e+000 0.000000e+000
    outer loop
      vertex -2.534796e+003 -2.009497e+003 1.712375e+003
      vertex -2.534796e+003 -3.939825e+003 1.712375e+003
      vertex -2.534796e+003 -3.939825e+003 1.712375e+003
    endloop
  endfacet
  facet normal 1.000000e+000 0.000000e+000 0.000000e+000
    outer loop
      vertex -2.534796e+003 -3.939825e+003 1.712375e+003
      vertex -2.534796e+003 -3.939825e+003 1.712375e+003
      vertex -2.534796e+003 -3.939825e+003 1.712375e+003
    endloop
  endfacet
  facet normal 1.000000e+000 0.000000e+000 0.000000e+000
    outer loop
      vertex -2.534796e+003 -3.939825e+003 1.712375e+003
      vertex -2.534796e+003 -3.939825e+003 1.712375e+003
      vertex -2.035364e+003 -3.939825e+003 1.712375e+003
    endloop
  endfacet
  facet normal 1.000000e+000 0.000000e+000 0.000000e+000
    outer loop
      vertex -2.534796e+003 -3.939825e+003 1.712375e+003
      vertex -2.035364e+003 -3.939825e+003 1.712375e+003
      vertex -2.035364e+003 -3.939825e+003 1.712375e+003
    endloop
  endfacet
  facet normal 1.000000e+000 0.000000e+000 0.000000e+000
    outer loop
      vertex -2.035364e+003 -3.939825e+003 1.712375e+003
      vertex -2.035364e+003 -3.939825e+003 1.712375e+003
      vertex -2.035364e+003 -3.939825e+003 1.712375e+003
    endloop
  endfacet
  facet normal 1.000000e+000 0.000000e+000 0.000000e+000
    outer loop
      vertex -2.035364e+003 -3.939825e+003 1.712375e+003
      vertex -2.035364e+003 -3.939825e+003 1.712375e+003
      vertex -2.035364e+003 -2.009497e+003 1.712375e+003
    endloop
  endfacet
  facet normal 1.000000e+000 0.000000e+000 0.000000e+000
    outer loop
      vertex -2.035364e+003 -3.939825e+003 1.712375e+003
      vertex -2.035364e+003 -2.009497e+003 1.712375e+003
      vertex -2.035364e+003 -2.009497e+003 1.712375e+003
    endloop
  endfacet
  facet normal 1.000000e+000 0.000000e+000 0.000000e+000
    outer loop
      vertex -2.035364e+003 -2.009497e+003 1.712375e+003
      vertex -2.035364e+003 -2.009497e+003 1.712375e+003
      vertex -2.035364e+003 -2.009497e+003 1.712375e+003
    endloop
  endfacet
  facet normal 1.000000e+000 0.000000e+000 0.000000e+000
    outer loop
      vertex -2.035364e+003 -2.009497e+003 1.712375e+003
      vertex -2.035364e+003 -2.009497e+003 1.712375e+003
      vertex -2.534796e+003 -2.009497e+003 1.712375e+003
    endloop
  endfacet
  facet normal 1.000000e+000 0.000000e+000 0.000000e+000
    outer loop
      vertex -2.035364e+003 -2.009497e+003 1.712375e+003
      vertex -2.534796e+003 -2.009497e+003 1.712375e+003
      vertex -2.534796e+003 -2.009497e+003 1.712375e+003
    endloop
  endfacet
  facet normal 0.000000e+000 0.000000e+000 -1.000000e+000
    outer loop
      vertex -2.035364e+003 -2.009497e+003 1.712375e+003
      vertex -2.035364e+003 -3.939825e+003 1.712375e+003
      vertex -2.534796e+003 -3.939825e+003 1.712375e+003
    endloop
  endfacet
  facet normal 0.000000e+000 0.000000e+000 -1.000000e+000
    outer loop
      vertex -2.035364e+003 -2.009497e+003 1.712375e+003
      vertex -2.534796e+003 -3.939825e+003 1.712375e+003
      vertex -2.534796e+003 -2.009497e+003 1.712375e+003
    endloop
  endfacet
endsolid Object01
