solid Object01
  facet normal 1.000000e+000 0.000000e+000 -8.138021e-008
    outer loop
      vertex -2.604979e+003 4.808112e+002 0.000000e+000
      vertex -2.604979e+003 4.808112e+002 3.000000e+003
      vertex -2.604979e+003 -4.350811e+003 0.000000e+000
    endloop
  endfacet
  facet normal 1.000000e+000 -5.052975e-008 0.000000e+000
    outer loop
      vertex -2.604979e+003 -4.350811e+003 3.000000e+003
      vertex -2.604979e+003 -4.350811e+003 0.000000e+000
      vertex -2.604979e+003 4.808112e+002 3.000000e+003
    endloop
  endfacet
  facet normal 2.481115e-008 1.000000e+000 0.000000e+000
    outer loop
      vertex -1.139938e+003 4.808112e+002 1.070549e+003
      vertex 9.005640e+001 4.808112e+002 1.070549e+003
      vertex 9.005640e+001 4.808112e+002 0.000000e+000
    endloop
  endfacet
  facet normal 0.000000e+000 1.000000e+000 -2.850648e-008
    outer loop
      vertex 9.005640e+001 4.808112e+002 0.000000e+000
      vertex -1.139938e+003 4.808112e+002 0.000000e+000
      vertex -1.139938e+003 4.808112e+002 1.070549e+003
    endloop
  endfacet
  facet normal 2.481115e-008 1.000000e+000 0.000000e+000
    outer loop
      vertex 9.005640e+001 4.808112e+002 1.070549e+003
      vertex -1.139938e+003 4.808112e+002 1.070549e+003
      vertex -1.139938e+003 4.808112e+002 2.250000e+003
    endloop
  endfacet
  facet normal 2.481115e-008 1.000000e+000 0.000000e+000
    outer loop
      vertex -1.139938e+003 4.808112e+002 2.250000e+003
      vertex 9.005640e+001 4.808112e+002 2.250000e+003
      vertex 9.005640e+001 4.808112e+002 1.070549e+003
    endloop
  endfacet
  facet normal -4.763231e-013 1.000000e+000 1.893208e-006
    outer loop
      vertex 1.060425e+003 4.808112e+002 3.000000e+003
      vertex 1.060425e+003 4.808113e+002 2.935522e+003
      vertex 9.005640e+001 4.808113e+002 2.935522e+003
    endloop
  endfacet
  facet normal 0.000000e+000 1.000000e+000 1.893201e-006
    outer loop
      vertex 9.005640e+001 4.808113e+002 2.935522e+003
      vertex 9.005640e+001 4.808112e+002 3.000000e+003
      vertex 1.060425e+003 4.808112e+002 3.000000e+003
    endloop
  endfacet
  facet normal -6.104896e-008 1.000000e+000 -2.850648e-008
    outer loop
      vertex -2.604979e+003 4.808112e+002 1.070549e+003
      vertex -2.105092e+003 4.808112e+002 1.070549e+003
      vertex -2.105092e+003 4.808112e+002 0.000000e+000
    endloop
  endfacet
  facet normal 0.000000e+000 1.000000e+000 0.000000e+000
    outer loop
      vertex -2.105092e+003 4.808112e+002 0.000000e+000
      vertex -2.604979e+003 4.808112e+002 0.000000e+000
      vertex -2.604979e+003 4.808112e+002 1.070549e+003
    endloop
  endfacet
  facet normal 0.000000e+000 1.000000e+000 -2.850648e-008
    outer loop
      vertex -2.105092e+003 4.808112e+002 1.070549e+003
      vertex -1.139938e+003 4.808112e+002 1.070549e+003
      vertex -1.139938e+003 4.808112e+002 0.000000e+000
    endloop
  endfacet
  facet normal 0.000000e+000 1.000000e+000 -2.850648e-008
    outer loop
      vertex -1.139938e+003 4.808112e+002 0.000000e+000
      vertex -2.105092e+003 4.808112e+002 0.000000e+000
      vertex -2.105092e+003 4.808112e+002 1.070549e+003
    endloop
  endfacet
  facet normal 0.000000e+000 1.000000e+000 0.000000e+000
    outer loop
      vertex -2.604979e+003 4.808112e+002 3.000000e+003
      vertex -2.105092e+003 4.808112e+002 3.000000e+003
      vertex -2.105092e+003 4.808112e+002 2.750729e+003
    endloop
  endfacet
  facet normal 0.000000e+000 1.000000e+000 0.000000e+000
    outer loop
      vertex -2.105092e+003 4.808112e+002 2.750729e+003
      vertex -2.604979e+003 4.808112e+002 2.750729e+003
      vertex -2.604979e+003 4.808112e+002 3.000000e+003
    endloop
  endfacet
  facet normal -3.161939e-008 1.000000e+000 1.224272e-007
    outer loop
      vertex -1.139938e+003 4.808112e+002 3.000000e+003
      vertex -1.139938e+003 4.808112e+002 2.750729e+003
      vertex -2.105092e+003 4.808112e+002 2.750729e+003
    endloop
  endfacet
  facet normal 0.000000e+000 1.000000e+000 0.000000e+000
    outer loop
      vertex -2.105092e+003 4.808112e+002 2.750729e+003
      vertex -2.105092e+003 4.808112e+002 3.000000e+003
      vertex -1.139938e+003 4.808112e+002 3.000000e+003
    endloop
  endfacet
  facet normal 0.000000e+000 1.000000e+000 0.000000e+000
    outer loop
      vertex -2.604979e+003 4.808112e+002 2.250000e+003
      vertex -2.604979e+003 4.808112e+002 2.750729e+003
      vertex -2.105092e+003 4.808112e+002 2.750729e+003
    endloop
  endfacet
  facet normal 0.000000e+000 1.000000e+000 0.000000e+000
    outer loop
      vertex -2.105092e+003 4.808112e+002 2.750729e+003
      vertex -2.105092e+003 4.808112e+002 2.250000e+003
      vertex -2.604979e+003 4.808112e+002 2.250000e+003
    endloop
  endfacet
  facet normal -3.588658e-007 1.000000e+000 1.893201e-006
    outer loop
      vertex 9.005640e+001 4.808112e+002 3.000000e+003
      vertex 9.005640e+001 4.808113e+002 2.935522e+003
      vertex -1.139938e+003 4.808112e+002 2.750729e+003
    endloop
  endfacet
  facet normal 0.000000e+000 1.000000e+000 1.224272e-007
    outer loop
      vertex -1.139938e+003 4.808112e+002 2.750729e+003
      vertex -1.139938e+003 4.808112e+002 3.000000e+003
      vertex 9.005640e+001 4.808112e+002 3.000000e+003
    endloop
  endfacet
  facet normal 2.481115e-008 1.000000e+000 -1.780692e-007
    outer loop
      vertex 9.005640e+001 4.808113e+002 2.935522e+003
      vertex 9.005640e+001 4.808112e+002 2.250000e+003
      vertex -1.139938e+003 4.808112e+002 2.250000e+003
    endloop
  endfacet
  facet normal -7.443346e-008 1.000000e+000 0.000000e+000
    outer loop
      vertex -1.139938e+003 4.808112e+002 2.250000e+003
      vertex -1.139938e+003 4.808112e+002 2.750729e+003
      vertex 9.005640e+001 4.808113e+002 2.935522e+003
    endloop
  endfacet
  facet normal 0.000000e+000 1.000000e+000 2.587439e-008
    outer loop
      vertex -2.604979e+003 4.808112e+002 2.250000e+003
      vertex -2.105092e+003 4.808112e+002 2.250000e+003
      vertex -2.105092e+003 4.808112e+002 1.070549e+003
    endloop
  endfacet
  facet normal -6.104896e-008 1.000000e+000 0.000000e+000
    outer loop
      vertex -2.105092e+003 4.808112e+002 1.070549e+003
      vertex -2.604979e+003 4.808112e+002 1.070549e+003
      vertex -2.604979e+003 4.808112e+002 2.250000e+003
    endloop
  endfacet
  facet normal 0.000000e+000 0.000000e+000 -1.000000e+000
    outer loop
      vertex 1.060425e+003 4.808112e+002 0.000000e+000
      vertex 9.005640e+001 4.808112e+002 0.000000e+000
      vertex 9.005640e+001 7.208112e+002 0.000000e+000
    endloop
  endfacet
  facet normal 0.000000e+000 0.000000e+000 -1.000000e+000
    outer loop
      vertex 9.005640e+001 7.208112e+002 0.000000e+000
      vertex 1.060425e+003 7.208112e+002 0.000000e+000
      vertex 1.060425e+003 4.808112e+002 0.000000e+000
    endloop
  endfacet
  facet normal -1.000000e+000 0.000000e+000 0.000000e+000
    outer loop
      vertex 9.005640e+001 4.808112e+002 0.000000e+000
      vertex 9.005640e+001 4.808112e+002 1.070549e+003
      vertex 9.005640e+001 7.208112e+002 1.070549e+003
    endloop
  endfacet
  facet normal -1.000000e+000 0.000000e+000 0.000000e+000
    outer loop
      vertex 9.005640e+001 7.208112e+002 1.070549e+003
      vertex 9.005640e+001 7.208112e+002 0.000000e+000
      vertex 9.005640e+001 4.808112e+002 0.000000e+000
    endloop
  endfacet
  facet normal 1.000000e+000 0.000000e+000 0.000000e+000
    outer loop
      vertex 1.060425e+003 4.808112e+002 1.070549e+003
      vertex 1.060425e+003 4.808112e+002 0.000000e+000
      vertex 1.060425e+003 7.208112e+002 0.000000e+000
    endloop
  endfacet
  facet normal 1.000000e+000 0.000000e+000 0.000000e+000
    outer loop
      vertex 1.060425e+003 7.208112e+002 0.000000e+000
      vertex 1.060425e+003 7.208112e+002 1.070549e+003
      vertex 1.060425e+003 4.808112e+002 1.070549e+003
    endloop
  endfacet
  facet normal 1.000000e+000 0.000000e+000 0.000000e+000
    outer loop
      vertex 1.060425e+003 4.808112e+002 2.250000e+003
      vertex 1.060425e+003 4.808112e+002 1.070549e+003
      vertex 1.060425e+003 7.208112e+002 1.070549e+003
    endloop
  endfacet
  facet normal 1.000000e+000 0.000000e+000 0.000000e+000
    outer loop
      vertex 1.060425e+003 7.208112e+002 1.070549e+003
      vertex 1.060425e+003 7.208112e+002 2.250000e+003
      vertex 1.060425e+003 4.808112e+002 2.250000e+003
    endloop
  endfacet
  facet normal -1.000000e+000 0.000000e+000 0.000000e+000
    outer loop
      vertex 9.005640e+001 4.808112e+002 1.070549e+003
      vertex 9.005640e+001 4.808112e+002 2.250000e+003
      vertex 9.005640e+001 7.208112e+002 2.250000e+003
    endloop
  endfacet
  facet normal -1.000000e+000 0.000000e+000 0.000000e+000
    outer loop
      vertex 9.005640e+001 7.208112e+002 2.250000e+003
      vertex 9.005640e+001 7.208112e+002 1.070549e+003
      vertex 9.005640e+001 4.808112e+002 1.070549e+003
    endloop
  endfacet
  facet normal 1.000000e+000 0.000000e+000 0.000000e+000
    outer loop
      vertex -1.139938e+003 4.808112e+002 2.250000e+003
      vertex -1.139938e+003 4.808112e+002 1.070549e+003
      vertex -1.139938e+003 7.208112e+002 1.070549e+003
    endloop
  endfacet
  facet normal 1.000000e+000 0.000000e+000 0.000000e+000
    outer loop
      vertex -1.139938e+003 7.208112e+002 1.070549e+003
      vertex -1.139938e+003 7.208112e+002 2.250000e+003
      vertex -1.139938e+003 4.808112e+002 2.250000e+003
    endloop
  endfacet
  facet normal -2.515957e-007 -1.017253e-006 1.000000e+000
    outer loop
      vertex 9.005640e+001 4.808113e+002 2.935522e+003
      vertex 1.060425e+003 4.808113e+002 2.935522e+003
      vertex 1.060425e+003 7.208112e+002 2.935522e+003
    endloop
  endfacet
  facet normal 0.000000e+000 -2.034506e-006 1.000000e+000
    outer loop
      vertex 1.060425e+003 7.208112e+002 2.935522e+003
      vertex 9.005640e+001 7.208112e+002 2.935522e+003
      vertex 9.005640e+001 4.808113e+002 2.935522e+003
    endloop
  endfacet
  facet normal 1.000000e+000 0.000000e+000 0.000000e+000
    outer loop
      vertex 1.060425e+003 4.808113e+002 2.935522e+003
      vertex 1.060425e+003 4.808112e+002 2.250000e+003
      vertex 1.060425e+003 7.208112e+002 2.250000e+003
    endloop
  endfacet
  facet normal 1.000000e+000 0.000000e+000 0.000000e+000
    outer loop
      vertex 1.060425e+003 7.208112e+002 2.250000e+003
      vertex 1.060425e+003 7.208112e+002 2.935522e+003
      vertex 1.060425e+003 4.808113e+002 2.935522e+003
    endloop
  endfacet
  facet normal -1.000000e+000 0.000000e+000 0.000000e+000
    outer loop
      vertex 9.005640e+001 4.808112e+002 2.250000e+003
      vertex 9.005640e+001 4.808113e+002 2.935522e+003
      vertex 9.005640e+001 7.208112e+002 2.935522e+003
    endloop
  endfacet
  facet normal -1.000000e+000 0.000000e+000 0.000000e+000
    outer loop
      vertex 9.005640e+001 7.208112e+002 2.935522e+003
      vertex 9.005640e+001 7.208112e+002 2.250000e+003
      vertex 9.005640e+001 4.808112e+002 2.250000e+003
    endloop
  endfacet
  facet normal 0.000000e+000 0.000000e+000 -1.000000e+000
    outer loop
      vertex -1.139938e+003 4.808112e+002 1.070549e+003
      vertex -2.105092e+003 4.808112e+002 1.070549e+003
      vertex -2.105092e+003 7.208112e+002 1.070549e+003
    endloop
  endfacet
  facet normal 0.000000e+000 0.000000e+000 -1.000000e+000
    outer loop
      vertex -2.105092e+003 7.208112e+002 1.070549e+003
      vertex -1.139938e+003 7.208112e+002 1.070549e+003
      vertex -1.139938e+003 4.808112e+002 1.070549e+003
    endloop
  endfacet
  facet normal 6.432981e-014 -2.034505e-006 1.000000e+000
    outer loop
      vertex -2.105092e+003 4.808112e+002 2.750729e+003
      vertex -1.139938e+003 4.808112e+002 2.750729e+003
      vertex -1.139938e+003 7.208112e+002 2.750729e+003
    endloop
  endfacet
  facet normal 0.000000e+000 -2.034505e-006 1.000000e+000
    outer loop
      vertex -1.139938e+003 7.208112e+002 2.750729e+003
      vertex -2.105092e+003 7.208112e+002 2.750729e+003
      vertex -2.105092e+003 4.808112e+002 2.750729e+003
    endloop
  endfacet
  facet normal -1.000000e+000 0.000000e+000 0.000000e+000
    outer loop
      vertex -2.105092e+003 4.808112e+002 2.250000e+003
      vertex -2.105092e+003 4.808112e+002 2.750729e+003
      vertex -2.105092e+003 7.208112e+002 2.750729e+003
    endloop
  endfacet
  facet normal -1.000000e+000 0.000000e+000 0.000000e+000
    outer loop
      vertex -2.105092e+003 7.208112e+002 2.750729e+003
      vertex -2.105092e+003 7.208112e+002 2.250000e+003
      vertex -2.105092e+003 4.808112e+002 2.250000e+003
    endloop
  endfacet
  facet normal 1.000000e+000 0.000000e+000 0.000000e+000
    outer loop
      vertex -1.139938e+003 4.808112e+002 2.750729e+003
      vertex -1.139938e+003 4.808112e+002 2.250000e+003
      vertex -1.139938e+003 7.208112e+002 2.250000e+003
    endloop
  endfacet
  facet normal 1.000000e+000 0.000000e+000 0.000000e+000
    outer loop
      vertex -1.139938e+003 7.208112e+002 2.250000e+003
      vertex -1.139938e+003 7.208112e+002 2.750729e+003
      vertex -1.139938e+003 4.808112e+002 2.750729e+003
    endloop
  endfacet
  facet normal -1.000000e+000 0.000000e+000 0.000000e+000
    outer loop
      vertex -2.105092e+003 4.808112e+002 1.070549e+003
      vertex -2.105092e+003 4.808112e+002 2.250000e+003
      vertex -2.105092e+003 7.208112e+002 2.250000e+003
    endloop
  endfacet
  facet normal -1.000000e+000 0.000000e+000 0.000000e+000
    outer loop
      vertex -2.105092e+003 7.208112e+002 2.250000e+003
      vertex -2.105092e+003 7.208112e+002 1.070549e+003
      vertex -2.105092e+003 4.808112e+002 1.070549e+003
    endloop
  endfacet
  facet normal 0.000000e+000 1.000000e+000 0.000000e+000
    outer loop
      vertex 1.065111e+003 -4.350811e+003 0.000000e+000
      vertex -2.604979e+003 -4.350811e+003 0.000000e+000
      vertex 1.060425e+003 -4.350811e+003 3.000000e+003
    endloop
  endfacet
  facet normal 0.000000e+000 1.000000e+000 0.000000e+000
    outer loop
      vertex 1.060425e+003 -4.350811e+003 3.000000e+003
      vertex -2.604979e+003 -4.350811e+003 0.000000e+000
      vertex -2.604979e+003 -4.350811e+003 3.000000e+003
    endloop
  endfacet
  facet normal -9.999995e-001 -9.698421e-004 4.032977e-011
    outer loop
      vertex 1.060425e+003 4.808112e+002 0.000000e+000
      vertex 1.065111e+003 -4.350811e+003 0.000000e+000
      vertex 1.060425e+003 4.808113e+002 2.935522e+003
    endloop
  endfacet
  facet normal -9.999995e-001 -9.698410e-004 -1.836111e-009
    outer loop
      vertex 1.060425e+003 4.808113e+002 2.935522e+003
      vertex 1.065111e+003 -4.350811e+003 0.000000e+000
      vertex 1.060425e+003 4.808112e+002 3.000000e+003
    endloop
  endfacet
  facet normal -9.999988e-001 0.000000e+000 -1.561969e-003
    outer loop
      vertex 1.060425e+003 4.808112e+002 3.000000e+003
      vertex 1.065111e+003 -4.350811e+003 0.000000e+000
      vertex 1.060425e+003 -4.350811e+003 3.000000e+003
    endloop
  endfacet
endsolid Object01
